<svg width="46" height="39" viewBox="0 0 46 39" fill="none" xmlns="http://www.w3.org/2000/svg">
<g clip-path="url(#clip0_34_509)">
<path d="M33.4479 15.397C32.7684 11.8438 29.6255 9.30588 25.9729 9.30588H20.0269C16.3744 9.30588 13.2315 11.9284 12.5519 15.397C11.6175 15.6508 10.938 16.4968 10.938 17.512C10.938 18.1041 11.1928 18.6117 11.5326 19.0347C11.1928 19.4577 10.938 19.9653 10.938 20.5575C10.938 21.5727 11.6175 22.4187 12.5519 22.6725C13.2315 26.2256 16.3744 28.7636 20.0269 28.7636H25.9729C29.6255 28.7636 32.7684 26.141 33.4479 22.6725C34.3823 22.4187 35.0618 21.5727 35.0618 20.5575C35.0618 19.9653 34.807 19.4577 34.4673 19.0347C34.807 18.6117 35.0618 18.1041 35.0618 17.512C35.0618 16.4968 34.3823 15.6508 33.4479 15.397ZM20.0269 10.7441H25.9729C28.7761 10.7441 31.1545 12.6052 31.919 15.2278H31.6641L31.4942 15.0586C31.0695 14.6356 30.5599 14.4664 30.0502 14.4664H29.6255C29.1158 14.4664 28.6062 14.6356 28.1815 15.0586C28.0965 15.1432 27.9266 15.2278 27.8417 15.2278H27.417C27.2471 15.2278 27.1621 15.1432 27.0772 15.0586C26.6525 14.6356 26.1428 14.4664 25.6332 14.4664H25.2084C24.6988 14.4664 24.1891 14.6356 23.7644 15.0586C23.6795 15.1432 23.5096 15.2278 23.4246 15.2278H22.9999C22.83 15.2278 22.7451 15.1432 22.6601 15.0586C22.2354 14.6356 21.7258 14.4664 21.2161 14.4664H20.7914C20.2817 14.4664 19.7721 14.6356 19.3474 15.0586C19.2624 15.1432 19.0925 15.2278 19.0076 15.2278H18.5829C18.413 15.2278 18.328 15.1432 18.2431 15.0586C17.8184 14.6356 17.3087 14.4664 16.7991 14.4664H16.3744C15.8647 14.4664 15.355 14.6356 14.9303 15.0586L14.7604 15.2278H14.1658C14.8454 12.6898 17.2238 10.7441 20.0269 10.7441ZM13.2315 16.7506H15.0153L15.6099 16.1584C15.6948 16.0738 15.8647 16.0738 16.0346 16.0738H16.4593C16.6292 16.0738 16.7141 16.1584 16.7991 16.243C17.2238 16.666 17.7334 16.8352 18.2431 16.8352H18.6678C19.1775 16.8352 19.6871 16.666 20.1119 16.243C20.1968 16.1584 20.3667 16.0738 20.4516 16.0738H20.9613C21.1312 16.0738 21.2161 16.1584 21.3011 16.243C21.7258 16.666 22.2354 16.8352 22.7451 16.8352H23.1698C23.6795 16.8352 24.1891 16.666 24.6138 16.243C24.6988 16.1584 24.8687 16.0738 24.9536 16.0738H25.3783C25.5482 16.0738 25.6332 16.1584 25.7181 16.243C26.1428 16.666 26.6525 16.8352 27.1621 16.8352H27.7567C28.2664 16.8352 28.7761 16.666 29.2008 16.243C29.2857 16.0738 29.4556 16.0738 29.5405 16.0738H29.9653C30.1351 16.0738 30.2201 16.1584 30.305 16.243L30.8996 16.8352H32.8533C33.278 16.8352 33.6178 17.1736 33.6178 17.5965C33.6178 18.0195 33.278 18.3579 32.8533 18.3579H13.2315C12.8067 18.3579 12.467 18.0195 12.467 17.5965C12.467 17.1736 12.8067 16.7506 13.2315 16.7506ZM25.9729 27.3254H20.0269C17.2238 27.3254 14.8454 25.4642 14.0809 22.8417H31.834C31.1545 25.3796 28.7761 27.3254 25.9729 27.3254ZM32.8533 21.3189H13.2315C12.8067 21.3189 12.467 20.9805 12.467 20.5575C12.467 20.1345 12.8067 19.7961 13.2315 19.7961H32.8533C33.278 19.7961 33.6178 20.1345 33.6178 20.5575C33.6178 20.9805 33.1931 21.3189 32.8533 21.3189Z" fill="#4E9DD3"/>
<path d="M10.937 1.69197C16.3734 1.69197 21.5549 6.7679 21.8097 7.02169C22.1495 7.36009 22.5742 7.44469 22.914 7.44469C23.2538 7.44469 23.6785 7.27549 24.0183 7.02169C24.1032 7.02169 26.6515 4.48373 30.1342 2.96095C31.918 2.19957 33.5319 1.77657 35.0609 1.77657C37.2694 1.77657 39.2231 2.62256 40.922 4.31453C43.0455 6.3449 43.895 8.79826 43.6401 11.59C42.7058 21.9111 26.8214 34.0933 22.914 36.9696C21.2151 35.7007 17.3078 32.7397 13.3154 28.9328C6.60491 22.2495 2.78247 16.3275 2.27281 11.5054C2.10292 8.71367 2.95235 6.3449 4.99099 4.22994C6.85974 2.36876 8.98332 1.69197 10.937 1.69197ZM10.937 0C8.21883 0 5.84042 1.01518 3.80179 3.04555C1.33843 5.58351 0.319115 8.37527 0.573945 11.6746C1.0836 16.9197 4.99099 23.0954 12.2112 30.0325C16.3734 34.0087 20.4506 37.1388 21.9796 38.2386L22.9989 39L24.0183 38.2386C28.7751 34.7701 44.4046 22.5879 45.4239 11.6746C45.7637 8.29067 44.6595 5.41432 42.1961 3.04555C40.1575 1.01518 37.7791 0 35.0609 0C33.2771 0 31.4083 0.422994 29.4546 1.35358C27.416 2.28416 25.3774 3.55315 23.4237 5.32972H23.3387L22.914 5.75271C22.1495 4.90672 16.7981 0 10.937 0Z" fill="#4E9DD3"/>
</g>
<defs>
<clipPath id="clip0_34_509">
<rect width="44.85" height="39" fill="white" transform="translate(0.574951)"/>
</clipPath>
</defs>
</svg>
