<svg width="100" height="100" viewBox="0 0 100 100" fill="none" xmlns="http://www.w3.org/2000/svg">
<circle cx="50" cy="50" r="50" fill="white"/>
<path d="M70.4906 38.2791C71.154 33.1771 68.9278 28.5236 64.5422 25.8359C64.1397 25.5852 63.7206 25.3461 63.2961 25.1145C56.5501 21.4326 48.4967 20.7066 41.201 23.1216C33.8064 25.5691 27.9296 30.8333 24.6528 37.9435C18.8342 50.5808 23.3364 65.6925 35.1251 73.0943C35.6227 73.4071 36.127 73.703 36.633 73.9792C36.9978 74.1783 37.3635 74.3663 37.7271 74.5441C42.3498 76.8091 47.6587 76.1739 51.5805 72.8864C55.7025 69.4308 57.3275 64.0304 55.8206 58.7916C55.8206 58.7916 55.8206 58.7916 55.8202 58.79C55.1636 56.5157 55.2787 54.5412 56.162 52.9228C57.0426 51.3094 58.6392 50.1475 60.9088 49.4689C66.1238 47.9065 69.7953 43.6192 70.4906 38.2791ZM54.1261 51.8117C52.9558 53.9559 52.7712 56.5918 53.5924 59.4346C54.841 63.7778 53.4988 68.2512 50.0906 71.1082C46.8324 73.8392 42.5925 74.3456 38.7457 72.4602C37.9478 72.0712 37.1424 71.6226 36.3594 71.1307C25.554 64.3456 21.4275 50.4957 26.7602 38.9143C29.7644 32.3933 35.1521 27.5667 41.9297 25.3231C48.6176 23.1092 56.0006 23.7751 62.1849 27.1504C62.5697 27.3604 62.9501 27.5758 63.3234 27.8091C66.9135 30.0086 68.733 33.8117 68.1898 37.9794C67.6157 42.3999 64.5703 45.9516 60.2442 47.247C57.4091 48.0942 55.2937 49.6724 54.1261 51.8117Z" fill="#9FCE9E"/>
<path d="M61.3905 28.6082C59.1637 27.3929 56.3623 28.2161 55.147 30.4428C53.9317 32.6696 54.7553 35.47 56.9821 36.6853C59.2089 37.9007 62.0087 37.078 63.2241 34.8512C64.4394 32.6244 63.6173 29.8236 61.3905 28.6082ZM58.0933 34.6494C56.9889 34.0466 56.5801 32.6585 57.1829 31.554C57.7857 30.4496 59.1749 30.0414 60.2793 30.6442C61.3837 31.247 61.7909 32.6356 61.1881 33.74C60.5854 34.8444 59.1977 35.2522 58.0933 34.6494Z" fill="#9FCE9E"/>
<path d="M42.9459 62.4027C40.7191 61.1873 37.9183 62.0095 36.703 64.2363C35.4876 66.4631 36.3108 69.2644 38.5376 70.4797C40.7643 71.6951 43.5647 70.8714 44.78 68.6446C45.9954 66.4178 45.1727 63.618 42.9459 62.4027ZM39.6487 68.4438C38.5443 67.841 38.1361 66.4519 38.7389 65.3474C39.3417 64.243 40.7303 63.8358 41.8347 64.4386C42.9392 65.0414 43.3469 66.429 42.7441 67.5334C42.1413 68.6379 40.7532 69.0466 39.6487 68.4438Z" fill="#9FCE9E"/>
<path d="M37.1053 42.5257C38.3206 40.2989 37.4985 37.4982 35.2717 36.2828C33.0449 35.0675 30.2436 35.8906 29.0282 38.1174C27.8129 40.3442 28.6366 43.1445 30.8634 44.3599C33.0901 45.5752 35.8899 44.7525 37.1053 42.5257ZM31.9745 42.324C30.8701 41.7212 30.4614 40.333 31.0641 39.2286C31.6669 38.1241 33.0561 37.7159 34.1605 38.3187C35.265 38.9215 35.6722 40.3101 35.0694 41.4146C34.4666 42.519 33.079 42.9267 31.9745 42.324Z" fill="#9FCE9E"/>
<path d="M30.1975 50.5561C27.7639 51.2729 26.3657 53.8347 27.0805 56.2672C27.4263 57.4468 28.2123 58.4203 29.2909 59.009C30.3695 59.5977 31.613 59.7306 32.7916 59.3842C33.9702 59.0379 34.9442 58.2534 35.5328 57.1748C36.1215 56.0962 36.256 54.8523 35.9086 53.6731C35.1934 51.2391 32.6316 49.8409 30.1975 50.5561ZM32.1378 57.1592C30.9669 57.5032 29.6497 56.7843 29.3056 55.6134C28.9511 54.4071 29.6445 53.1366 30.8514 52.7812C32.0581 52.4283 33.3276 53.1211 33.6836 54.327C33.8556 54.9124 33.7888 55.5288 33.4969 56.0637C33.205 56.5985 32.7233 56.9871 32.1378 57.1592Z" fill="#9FCE9E"/>
<path d="M43.239 26.6612C40.8065 27.376 39.4083 29.9378 40.122 32.3723C40.4796 33.5893 41.2996 34.5478 42.3335 35.1121C43.3674 35.6763 44.6161 35.8469 45.8331 35.4893C47.0127 35.1435 47.9862 34.3575 48.5749 33.2789C49.1636 32.2003 49.2975 30.9574 48.9502 29.7782C48.2586 27.419 45.5974 25.9665 43.239 26.6612ZM45.1793 33.2642C43.9715 33.6191 42.702 32.9263 42.3471 31.7185C41.9932 30.5112 42.6866 29.2407 43.8929 28.8863C44.4783 28.7142 45.0948 28.781 45.6296 29.0729C46.1644 29.3648 46.553 29.8466 46.7251 30.432C46.8971 31.0175 46.8309 31.6329 46.539 32.1678C46.2471 32.7026 45.7648 33.0922 45.1793 33.2642Z" fill="#9FCE9E"/>
<path d="M75.5928 54.2462L77.2288 48.5873C78.3049 48.1887 79.2547 47.4351 79.8461 46.3515C80.9486 44.3315 80.5738 38.1532 80.4873 36.9358C80.4326 36.1473 79.4652 35.6219 78.7735 36.0004C77.7023 36.5873 72.3049 39.6139 71.2024 41.6339C70.6109 42.7178 70.4907 43.9244 70.7377 45.045L66.8636 49.4819C66.8312 49.5192 66.8223 49.5687 66.7952 49.6091C66.7605 49.6601 66.7119 49.6996 66.6855 49.7563L55.3584 74.1008C54.6502 75.6586 55.2729 77.5222 56.776 78.3426C58.28 79.1635 60.1843 78.6791 61.1172 77.2322L75.4584 54.5444C75.4918 54.4915 75.4987 54.4293 75.5229 54.3725C75.5422 54.3279 75.579 54.2936 75.5928 54.2462ZM59.1627 75.9836C58.8896 76.4061 58.3295 76.5481 57.8871 76.3067C57.4448 76.0652 57.2622 75.5179 57.4659 75.0691L68.2672 51.8556L72.8371 54.3498L59.1627 75.9836ZM69.5613 49.9195L71.8754 47.2696C72.2389 47.6753 72.6599 48.0393 73.1647 48.3148C73.6697 48.5905 74.2041 48.7478 74.7423 48.834L73.7654 52.214L69.5613 49.9195ZM74.2758 46.2789C73.0153 45.5909 72.5503 44.0056 73.2383 42.7451C73.6935 41.9111 76.0905 40.2686 78.2675 38.9653C78.3501 41.5018 78.2659 44.4053 77.8102 45.2404C77.1222 46.5009 75.5364 46.9669 74.2758 46.2789Z" fill="#9FCE9E"/>
</svg>
