<svg width="101" height="100" viewBox="0 0 101 100" fill="none" xmlns="http://www.w3.org/2000/svg">
<circle cx="50.5" cy="50" r="50" fill="white"/>
<path d="M78.0618 22.4383V77.5619H22.9381V22.4383H78.0618ZM78.0618 20.9092H22.9381C22.0971 20.9092 21.4091 21.5973 21.4091 22.4383V77.5619C21.4091 78.4029 22.0971 79.091 22.9381 79.091H78.0618C78.9028 79.091 79.5909 78.4029 79.5909 77.5619V22.4383C79.5909 21.5973 78.9028 20.9092 78.0618 20.9092Z" fill="#F4976E"/>
<path d="M51.3027 37.8056C51.3027 37.1939 51.0733 36.6587 50.6911 36.2765C51.0733 35.8942 51.3027 35.359 51.3027 34.7474C51.3027 33.677 50.6146 32.836 49.6972 32.5302C48.9326 28.9369 45.798 26.3374 42.0517 26.3374H36.0118C32.2655 26.3374 29.1309 29.0133 28.4428 32.5302C27.5254 32.836 26.8373 33.677 26.8373 34.7474C26.8373 35.359 27.0666 35.8942 27.4489 36.2765C27.0666 36.6587 26.8373 37.1939 26.8373 37.8056C26.8373 38.8759 27.5254 39.7169 28.4428 40.0227C29.1309 43.6161 32.342 46.2156 36.0118 46.2156H42.0517C45.7215 46.2156 48.9326 43.5396 49.6207 40.0227C50.6146 39.7169 51.3027 38.7995 51.3027 37.8056ZM36.0118 27.8665H42.0517C44.8805 27.8665 47.3271 29.7779 48.0152 32.4538H47.7093L47.5564 32.3008C47.1742 31.9186 46.639 31.6892 46.1038 31.6892H45.6451C45.1099 31.6892 44.5747 31.9186 44.1924 32.3008C44.116 32.3773 43.9631 32.4538 43.8102 32.4538H43.3514C43.1985 32.4538 43.0456 32.3773 42.9692 32.3008C42.5869 31.9186 42.0517 31.6892 41.5165 31.6892H41.0578C40.5226 31.6892 39.9874 31.9186 39.6052 32.3008C39.5287 32.3773 39.3758 32.4538 39.2229 32.4538H38.7642C38.6113 32.4538 38.4584 32.3773 38.3819 32.3008C37.9996 31.9186 37.4644 31.6892 36.9293 31.6892H36.4705C35.9354 31.6892 35.4002 31.9186 35.0179 32.3008C34.9414 32.3773 34.7885 32.4538 34.6356 32.4538H34.1769C34.024 32.4538 33.8711 32.3773 33.7946 32.3008C33.4124 31.9186 32.8772 31.6892 32.342 31.6892H31.8833C31.3481 31.6892 30.8129 31.9186 30.4306 32.3008L30.2777 32.4538H29.9719C30.7365 29.7779 33.183 27.8665 36.0118 27.8665ZM29.1309 33.9828H30.9658L31.5775 33.3712C31.6539 33.2948 31.8068 33.2183 31.9597 33.2183H32.4185C32.5714 33.2183 32.7243 33.2948 32.8007 33.3712C33.183 33.7535 33.7182 33.9828 34.2534 33.9828H34.7121C35.2473 33.9828 35.7824 33.7535 36.1647 33.3712C36.2412 33.2948 36.3941 33.2183 36.547 33.2183H37.0057C37.1586 33.2183 37.3115 33.2948 37.388 33.3712C37.7703 33.7535 38.3054 33.9828 38.8406 33.9828H39.2994C39.8345 33.9828 40.3697 33.7535 40.752 33.3712C40.8284 33.2948 40.9813 33.2183 41.1343 33.2183H41.593C41.7459 33.2183 41.8988 33.2948 41.9753 33.3712C42.3575 33.7535 42.8927 33.9828 43.4279 33.9828H43.8866C44.4218 33.9828 44.957 33.7535 45.3393 33.3712C45.4157 33.2948 45.5686 33.2183 45.7215 33.2183H46.1803C46.3332 33.2183 46.4861 33.2948 46.5625 33.3712L47.1742 33.9828H49.0091C49.4678 33.9828 49.7736 34.2887 49.7736 34.7474C49.7736 35.2061 49.4678 35.5119 49.0091 35.5119H29.1309C28.6722 35.5119 28.3664 35.2061 28.3664 34.7474C28.3664 34.2887 28.6722 33.9828 29.1309 33.9828ZM29.1309 37.041H49.0091C49.4678 37.041 49.7736 37.3468 49.7736 37.8056C49.7736 38.2643 49.4678 38.5701 49.0091 38.5701H29.1309C28.6722 38.5701 28.3664 38.2643 28.3664 37.8056C28.3664 37.3468 28.6722 37.041 29.1309 37.041ZM42.0517 44.6865H36.0118C33.183 44.6865 30.7365 42.7751 30.0484 40.0992H48.0916C47.3271 42.7751 44.8805 44.6865 42.0517 44.6865Z" fill="#F4976E"/>
<path d="M72.5571 60.0539C71.869 56.4605 68.6579 53.8611 64.9881 53.8611H58.9482C55.2784 53.8611 52.0673 56.537 51.3792 60.0539C50.4618 60.3597 49.7737 61.2007 49.7737 62.2711C49.7737 62.8827 50.003 63.4179 50.3853 63.8002C50.003 64.1824 49.7737 64.7176 49.7737 65.3292C49.7737 66.3996 50.4618 67.2406 51.3792 67.5464C52.0673 71.1398 55.2784 73.7392 58.9482 73.7392H64.9881C68.6579 73.7392 71.869 71.0633 72.5571 67.5464C73.4746 67.2406 74.1626 66.3996 74.1626 65.3292C74.1626 64.7176 73.9333 64.1824 73.551 63.8002C73.9333 63.4179 74.1626 62.8827 74.1626 62.2711C74.2391 61.2007 73.551 60.3597 72.5571 60.0539ZM58.9482 55.3902H64.9881C67.8169 55.3902 70.2635 57.3015 70.9516 59.9774H70.6457L70.4928 59.8245C70.1106 59.4423 69.5754 59.2129 69.0402 59.2129H68.5815C68.0463 59.2129 67.5111 59.4423 67.1288 59.8245C67.0524 59.901 66.8995 59.9774 66.7466 59.9774H66.2878C66.1349 59.9774 65.982 59.901 65.9056 59.8245C65.5233 59.4423 64.9881 59.2129 64.4529 59.2129H63.9942C63.459 59.2129 62.9238 59.4423 62.5416 59.8245C62.4651 59.901 62.3122 59.9774 62.1593 59.9774H61.7006C61.5477 59.9774 61.3948 59.901 61.3183 59.8245C60.936 59.4423 60.4008 59.2129 59.8657 59.2129H59.4069C58.8718 59.2129 58.3366 59.4423 57.9543 59.8245C57.8779 59.901 57.7249 59.9774 57.572 59.9774H57.1133C56.9604 59.9774 56.8075 59.901 56.731 59.8245C56.3488 59.4423 55.8136 59.2129 55.2784 59.2129H54.8197C54.2845 59.2129 53.7493 59.4423 53.367 59.8245L53.2141 59.9774H52.9083C53.6729 57.3015 56.1194 55.3902 58.9482 55.3902ZM52.0673 61.5065H53.9022L54.5139 60.8949C54.5903 60.8184 54.7432 60.742 54.8961 60.742H55.3549C55.5078 60.742 55.6607 60.8184 55.7371 60.8949C56.1194 61.2772 56.6546 61.5065 57.1898 61.5065H57.6485C58.1837 61.5065 58.7189 61.2772 59.1011 60.8949C59.1776 60.8184 59.3305 60.742 59.4834 60.742H59.9421C60.095 60.742 60.2479 60.8184 60.3244 60.8949C60.7067 61.2772 61.2418 61.5065 61.777 61.5065H62.2358C62.7709 61.5065 63.3061 61.2772 63.6884 60.8949C63.7648 60.8184 63.9178 60.742 64.0707 60.742H64.5294C64.6823 60.742 64.8352 60.8184 64.9117 60.8949C65.2939 61.2772 65.8291 61.5065 66.3643 61.5065H66.823C67.3582 61.5065 67.8934 61.2772 68.2757 60.8949C68.3521 60.8184 68.505 60.742 68.6579 60.742H69.1167C69.2696 60.742 69.4225 60.8184 69.4989 60.8949L70.1106 61.5065H71.9455C72.4042 61.5065 72.71 61.8123 72.71 62.2711C72.71 62.7298 72.4042 63.0356 71.9455 63.0356H52.0673C51.6086 63.0356 51.3028 62.7298 51.3028 62.2711C51.3028 61.8123 51.6086 61.5065 52.0673 61.5065ZM64.9881 72.2101H58.9482C56.1194 72.2101 53.6729 70.2988 52.9848 67.6229H71.028C70.2635 70.2988 67.8169 72.2101 64.9881 72.2101ZM71.9455 66.0938H52.0673C51.6086 66.0938 51.3028 65.788 51.3028 65.3292C51.3028 64.8705 51.6086 64.5647 52.0673 64.5647H71.9455C72.4042 64.5647 72.71 64.8705 72.71 65.3292C72.71 65.788 72.3277 66.0938 71.9455 66.0938Z" fill="#F4976E"/>
<path d="M40.4461 50.8792C40.1403 49.9618 39.2993 49.2737 38.2289 49.2737C37.6173 49.2737 37.0821 49.503 36.6998 49.8853C36.3175 49.503 35.7824 49.2737 35.1707 49.2737C34.1004 49.2737 33.2594 49.9618 32.9536 50.8792C29.3602 51.5673 26.7607 54.7784 26.7607 58.4482V64.4881C26.7607 68.1579 29.4366 71.369 32.9536 72.0571C33.2594 72.9746 34.1004 73.6626 35.1707 73.6626C35.7824 73.6626 36.3175 73.4333 36.6998 73.051C37.0821 73.4333 37.6173 73.6626 38.2289 73.6626C39.2993 73.6626 40.1403 72.9746 40.4461 72.0571C44.0394 71.369 46.6389 68.1579 46.6389 64.4881V58.4482C46.7154 54.7784 44.0394 51.5673 40.4461 50.8792ZM28.3663 64.4881V58.4482C28.3663 55.6194 30.2776 53.1729 32.9536 52.4848V52.7906L32.8006 52.9435C32.4184 53.3258 32.189 53.8609 32.189 54.3961V54.8549C32.189 55.39 32.4184 55.9252 32.8006 56.3075C32.8771 56.3839 32.9536 56.5369 32.9536 56.6898V57.1485C32.9536 57.3014 32.8771 57.4543 32.8006 57.5308C32.4184 57.913 32.189 58.4482 32.189 58.9834V59.4421C32.189 59.9773 32.4184 60.5125 32.8006 60.8948C32.8771 60.9712 32.9536 61.1241 32.9536 61.277V61.7358C32.9536 61.8887 32.8771 62.0416 32.8006 62.118C32.4184 62.5003 32.189 63.0355 32.189 63.5707V64.0294C32.189 64.5646 32.4184 65.0997 32.8006 65.482C32.8771 65.5585 32.9536 65.7114 32.9536 65.8643V66.323C32.9536 66.4759 32.8771 66.6288 32.8006 66.7053C32.4184 67.0876 32.189 67.6227 32.189 68.1579V68.6167C32.189 69.1518 32.4184 69.687 32.8006 70.0693L32.9536 70.2222V70.528C30.2776 69.7635 28.3663 67.3169 28.3663 64.4881ZM35.2472 72.21C34.7885 72.21 34.4826 71.9042 34.4826 71.4455V69.6106L33.871 68.9989C33.7945 68.9225 33.7181 68.7696 33.7181 68.6167V68.1579C33.7181 68.005 33.7945 67.8521 33.871 67.7757C34.2533 67.3934 34.4826 66.8582 34.4826 66.323V65.8643C34.4826 65.3291 34.2533 64.7939 33.871 64.4117C33.7945 64.3352 33.7181 64.1823 33.7181 64.0294V63.5707C33.7181 63.4178 33.7945 63.2648 33.871 63.1884C34.2533 62.8061 34.4826 62.2709 34.4826 61.7358V61.277C34.4826 60.7418 34.2533 60.2067 33.871 59.8244C33.7945 59.7479 33.7181 59.595 33.7181 59.4421V58.9834C33.7181 58.8305 33.7945 58.6776 33.871 58.6011C34.2533 58.2189 34.4826 57.6837 34.4826 57.1485V56.6898C34.4826 56.1546 34.2533 55.6194 33.871 55.2371C33.7945 55.1607 33.7181 55.0078 33.7181 54.8549V54.3961C33.7181 54.2432 33.7945 54.0903 33.871 54.0139L34.4826 53.4022V51.5673C34.4826 51.1086 34.7885 50.8028 35.2472 50.8028C35.7059 50.8028 36.0117 51.1086 36.0117 51.5673V71.4455C36.0117 71.8277 35.6295 72.21 35.2472 72.21ZM39.0699 71.4455C39.0699 71.9042 38.7641 72.21 38.3054 72.21C37.8466 72.21 37.5408 71.9042 37.5408 71.4455V51.5673C37.5408 51.1086 37.8466 50.8028 38.3054 50.8028C38.7641 50.8028 39.0699 51.1086 39.0699 51.5673V71.4455ZM45.1863 64.4881C45.1863 67.3169 43.2749 69.7635 40.599 70.4516V52.4848C43.2749 53.1729 45.1863 55.6194 45.1863 58.4482V64.4881Z" fill="#F4976E"/>
<path d="M67.9696 27.9429C67.6638 27.0255 66.8228 26.3374 65.7525 26.3374C65.1408 26.3374 64.6057 26.5668 64.2234 26.949C63.8411 26.5668 63.3059 26.3374 62.6943 26.3374C61.6239 26.3374 60.7829 27.0255 60.4771 27.9429C56.8838 28.631 54.2843 31.8421 54.2843 35.5119V41.5518C54.2843 45.2216 56.9602 48.4327 60.4771 49.1208C60.7829 50.0383 61.6239 50.7264 62.6943 50.7264C63.3059 50.7264 63.8411 50.497 64.2234 50.1147C64.6057 50.497 65.1408 50.7264 65.7525 50.7264C66.8228 50.7264 67.6638 50.0383 67.9696 49.1208C71.563 48.4327 74.1625 45.2216 74.1625 41.5518V35.5119C74.2389 31.8421 71.563 28.631 67.9696 27.9429ZM55.8898 41.5518V35.5119C55.8898 32.6831 57.8012 30.2366 60.4771 29.5485V47.5917C57.8012 46.8272 55.8898 44.3806 55.8898 41.5518ZM62.7707 49.2737C62.312 49.2737 62.0062 48.9679 62.0062 48.5092V28.631C62.0062 28.1723 62.312 27.8665 62.7707 27.8665C63.2295 27.8665 63.5353 28.1723 63.5353 28.631V48.5092C63.5353 48.8915 63.153 49.2737 62.7707 49.2737ZM66.5935 46.6743V48.5092C66.5935 48.9679 66.2876 49.2737 65.8289 49.2737C65.3702 49.2737 65.0644 48.9679 65.0644 48.5092V28.631C65.0644 28.1723 65.3702 27.8665 65.8289 27.8665C66.2876 27.8665 66.5935 28.1723 66.5935 28.631V30.4659L67.2051 31.0776C67.2816 31.154 67.358 31.3069 67.358 31.4598V31.9186C67.358 32.0715 67.2816 32.2244 67.2051 32.3008C66.8228 32.6831 66.5935 33.2183 66.5935 33.7535V34.2122C66.5935 34.7474 66.8228 35.2826 67.2051 35.6648C67.2816 35.7413 67.358 35.8942 67.358 36.0471V36.5058C67.358 36.6587 67.2816 36.8117 67.2051 36.8881C66.8228 37.2704 66.5935 37.8056 66.5935 38.3407V38.7995C66.5935 39.3347 66.8228 39.8698 67.2051 40.2521C67.2816 40.3286 67.358 40.4815 67.358 40.6344V41.0931C67.358 41.246 67.2816 41.3989 67.2051 41.4754C66.8228 41.8576 66.5935 42.3928 66.5935 42.928V43.3867C66.5935 43.9219 66.8228 44.4571 67.2051 44.8394C67.2816 44.9158 67.358 45.0687 67.358 45.2216V45.6804C67.358 45.8333 67.2816 45.9862 67.2051 46.0626L66.5935 46.6743ZM72.7098 41.5518C72.7098 44.3806 70.7985 46.8272 68.1226 47.5153V47.2095L68.2755 47.0566C68.6577 46.6743 68.8871 46.1391 68.8871 45.6039V45.1452C68.8871 44.61 68.6577 44.0748 68.2755 43.6926C68.199 43.6161 68.1226 43.4632 68.1226 43.3103V42.8516C68.1226 42.6987 68.199 42.5457 68.2755 42.4693C68.6577 42.087 68.8871 41.5518 68.8871 41.0167V40.5579C68.8871 40.0227 68.6577 39.4876 68.2755 39.1053C68.199 39.0288 68.1226 38.8759 68.1226 38.723V38.2643C68.1226 38.1114 68.199 37.9585 68.2755 37.882C68.6577 37.4997 68.8871 36.9646 68.8871 36.4294V35.9707C68.8871 35.4355 68.6577 34.9003 68.2755 34.518C68.199 34.4416 68.1226 34.2887 68.1226 34.1358V33.677C68.1226 33.5241 68.199 33.3712 68.2755 33.2948C68.6577 32.9125 68.8871 32.3773 68.8871 31.8421V31.3834C68.8871 30.8482 68.6577 30.313 68.2755 29.9308L68.1226 29.7779V29.472C70.7985 30.1601 72.7098 32.6067 72.7098 35.4355V41.5518Z" fill="#F4976E"/>
</svg>
