<svg width="101" height="100" viewBox="0 0 101 100" fill="none" xmlns="http://www.w3.org/2000/svg">
<circle cx="50.5" cy="50" r="50" fill="white"/>
<path d="M74.4102 49.8631V42.555H62.4432C62.7173 42.281 62.9913 42.0069 63.174 41.6415H64.8184C67.1021 41.6415 68.9292 39.8145 68.9292 37.5307C68.9292 35.2469 67.1021 33.4199 64.8184 33.4199H64.3616H63.4481H51.5724V37.9875C51.5724 39.8145 52.3032 41.3675 53.4908 42.555H43.3508V49.8631H45.1779V48.0361H46.4568L48.2838 51.6902H49.7454V74.528C49.7454 75.5328 48.9233 76.355 47.9184 76.355C46.9135 76.355 46.0914 75.5328 46.0914 74.528H44.2643C44.2643 76.5377 45.9087 78.182 47.9184 78.182C49.9281 78.182 51.5724 76.5377 51.5724 74.528V61.7388H66.1886V74.528C66.1886 76.5377 67.8329 78.182 69.8427 78.182C71.8524 78.182 73.4967 76.5377 73.4967 74.528H71.6697C71.6697 75.5328 70.8475 76.355 69.8427 76.355C68.8378 76.355 68.0156 75.5328 68.0156 74.528V51.6902H69.4773L71.3043 48.0361H72.5832V49.8631H74.4102ZM64.8184 35.2469C66.0973 35.2469 67.1021 36.2518 67.1021 37.5307C67.1021 38.8096 66.0973 39.8145 64.8184 39.8145H64.0875C64.2703 39.2664 64.3616 38.6269 64.3616 37.9875V35.2469H64.8184ZM53.3995 37.9875V35.2469H62.5346V37.9875C62.5346 40.5453 60.5249 42.555 57.967 42.555C55.4092 42.555 53.3995 40.5453 53.3995 37.9875ZM51.5724 59.9118V58.0847H66.1886V59.9118H51.5724ZM66.1886 56.2577H51.5724V51.6902H66.1886V56.2577ZM68.3811 49.8631H49.38L48.4665 48.0361H69.2946L68.3811 49.8631ZM45.1779 46.2091V44.3821H72.5832V46.2091H45.1779Z" fill="#8A8CDC"/>
<path d="M39.6967 75.4415C39.6967 75.9896 39.3313 76.355 38.7832 76.355C38.2351 76.355 37.8697 75.9896 37.8697 75.4415V60.8253H38.7832C39.7881 60.8253 40.6103 60.0031 40.6103 58.9983V57.1712C40.6103 56.1664 39.7881 55.3442 38.7832 55.3442H24.167L23.2535 36.1605C23.2535 34.6075 22.066 33.4199 20.513 33.4199C18.96 33.4199 17.7725 34.6075 17.7725 36.1605V37.074H19.5995V36.1605C19.5995 35.6123 19.9649 35.2469 20.513 35.2469C21.0611 35.2469 21.4265 35.6123 21.4265 36.1605L22.34 56.2577V60.8253H24.167V75.4415C24.167 75.9896 23.8016 76.355 23.2535 76.355C22.7054 76.355 22.34 75.9896 22.34 75.4415V74.528H20.513V75.4415C20.513 76.9944 21.7006 78.182 23.2535 78.182C24.8065 78.182 25.9941 76.9944 25.9941 75.4415V60.8253H36.0427V75.4415C36.0427 76.9944 37.2303 78.182 38.7832 78.182C40.3362 78.182 41.5238 76.9944 41.5238 75.4415V74.528H39.6967V75.4415ZM24.167 57.1712H38.7832V58.9983H24.167V57.1712Z" fill="#8A8CDC"/>
<path d="M54.3132 26.66C53.7651 27.2081 53.3997 28.0302 53.3997 28.8524C53.3997 29.6746 53.7651 30.4967 54.3132 31.0448L55.5007 32.2324L56.7797 30.9535L55.5921 29.7659C55.318 29.4919 55.2267 29.2178 55.2267 28.8524C55.2267 28.487 55.318 28.2129 55.5921 27.9389L56.1402 27.3908C56.6883 26.8427 57.0537 26.0205 57.0537 25.1984C57.0537 24.3762 56.6883 23.554 56.1402 23.0059L54.9526 21.8184L53.6737 23.0973L54.8613 24.2848C55.1353 24.5589 55.2267 24.8329 55.2267 25.1984C55.2267 25.5638 55.1353 25.8378 54.8613 26.1119L54.3132 26.66Z" fill="#8A8CDC"/>
<path d="M59.7941 26.66C59.246 27.2081 58.8806 28.0302 58.8806 28.8524C58.8806 29.6746 59.246 30.4967 59.7941 31.0448L60.9817 32.2324L62.2606 30.9535L61.073 29.7659C60.799 29.4919 60.7076 29.2178 60.7076 28.8524C60.7076 28.487 60.799 28.2129 61.073 27.9389L61.6212 27.3908C62.1693 26.8427 62.5347 26.0205 62.5347 25.1984C62.5347 24.3762 62.1693 23.554 61.6212 23.0059L60.4336 21.8184L59.1547 23.0973L60.3422 24.2848C60.6163 24.5589 60.7076 24.8329 60.7076 25.1984C60.7076 25.5638 60.6163 25.8378 60.3422 26.1119L59.7941 26.66Z" fill="#8A8CDC"/>
</svg>
