<svg width="100" height="100" viewBox="0 0 100 100" fill="none" xmlns="http://www.w3.org/2000/svg">
<circle cx="50" cy="50" r="50" fill="white"/>
<path d="M58.763 26.4822C58.1507 23.3173 55.2936 20.9092 52.0283 20.9092H46.6541C43.3888 20.9092 40.5317 23.3173 39.9195 26.4822C39.0351 26.7574 38.4229 27.5142 38.4229 28.4774C38.4229 29.0278 38.6269 29.5095 38.9671 29.8535C38.6269 30.1975 38.4229 30.6791 38.4229 31.2295C38.4229 32.1927 39.0351 32.9496 39.8514 33.2248C40.4637 36.4585 43.3208 38.7977 46.5861 38.7977H51.9603C55.2256 38.7977 58.0827 36.3897 58.695 33.2248C59.5113 32.9496 60.1235 32.1927 60.1235 31.2295C60.1235 30.6791 59.9194 30.1975 59.5793 29.8535C59.9194 29.5095 60.1235 29.0278 60.1235 28.4774C60.1916 27.5142 59.5793 26.7574 58.763 26.4822ZM46.6541 22.2852H52.0283C54.5453 22.2852 56.7222 24.0053 57.3344 26.4134H57.0623L56.9262 26.2757C56.5861 25.9317 56.1779 25.7253 55.6337 25.7253H55.2256C54.7494 25.7253 54.2732 25.9317 53.9331 26.2757C53.865 26.3446 53.729 26.4134 53.5929 26.4134H53.1848C53.0487 26.4134 52.9126 26.3446 52.8446 26.2757C52.5045 25.9317 52.0963 25.7253 51.5521 25.7253H51.1439C50.6677 25.7253 50.1916 25.9317 49.8514 26.2757C49.7834 26.3446 49.6473 26.4134 49.5113 26.4134H49.1031C48.9671 26.4134 48.831 26.3446 48.763 26.2757C48.4228 25.9317 48.0147 25.7253 47.4705 25.7253H47.0623C46.5861 25.7253 46.1099 25.9317 45.7698 26.2757C45.7018 26.3446 45.5657 26.4134 45.4297 26.4134H45.0215C44.8854 26.4134 44.7494 26.3446 44.6814 26.2757C44.3412 25.9317 43.9331 25.7253 43.3888 25.7253H42.9807C42.5045 25.7253 42.0283 25.9317 41.6882 26.2757L41.5521 26.4134H41.28C41.9603 24.0053 44.1371 22.2852 46.6541 22.2852ZM40.4637 27.7894H42.0963L42.6405 27.239C42.7766 27.1702 42.9126 27.1014 42.9807 27.1014H43.3888C43.5249 27.1014 43.6609 27.1702 43.729 27.239C44.0691 27.583 44.5453 27.7894 45.0215 27.7894H45.4297C45.9058 27.7894 46.382 27.583 46.7222 27.239C46.8582 27.1702 46.9943 27.1014 47.0623 27.1014H47.4705C47.6065 27.1014 47.7426 27.1702 47.8106 27.239C48.1507 27.583 48.6269 27.7894 49.1031 27.7894H49.5113C49.9875 27.7894 50.4637 27.583 50.8038 27.239C50.9399 27.1702 51.0759 27.1014 51.1439 27.1014H51.5521C51.6882 27.1014 51.8242 27.1702 51.8922 27.239C52.2324 27.583 52.7086 27.7894 53.1848 27.7894H53.5929C54.0691 27.7894 54.5453 27.583 54.8854 27.239C55.0215 27.1702 55.1575 27.1014 55.2256 27.1014H55.6337C55.7698 27.1014 55.9058 27.1702 55.9739 27.239L56.5181 27.7894H58.1507C58.5589 27.7894 58.831 28.0646 58.831 28.4774C58.831 28.8902 58.5589 29.1654 58.1507 29.1654H40.4637C40.0555 29.1654 39.7834 28.8902 39.7834 28.4774C39.7834 28.0646 40.1235 27.7894 40.4637 27.7894ZM52.0283 37.4217H46.6541C44.1371 37.4217 41.9603 35.7016 41.348 33.2936H57.4024C56.7222 35.7016 54.5453 37.4217 52.0283 37.4217ZM58.1507 31.9175H40.4637C40.0555 31.9175 39.7834 31.6423 39.7834 31.2295C39.7834 30.8167 40.0555 30.5415 40.4637 30.5415H58.1507C58.5589 30.5415 58.831 30.8167 58.831 31.2295C58.831 31.6423 58.5589 31.9175 58.1507 31.9175Z" fill="#E67285"/>
<path d="M34.8857 64.0481C34.2734 60.8144 31.4163 58.4751 28.151 58.4751H22.7768C19.5115 58.4751 16.6544 60.8832 16.0421 64.0481C15.1578 64.3233 14.5455 65.0801 14.5455 66.0433C14.5455 66.5938 14.7496 67.0754 15.0897 67.4194C14.7496 67.7634 14.5455 68.245 14.5455 68.7954C14.5455 69.7586 15.1578 70.5155 15.9741 70.7907C16.5863 74.0244 19.4435 76.3637 22.7088 76.3637H28.0829C31.3483 76.3637 34.2054 73.9556 34.8176 70.7907C35.634 70.5155 36.2462 69.7586 36.2462 68.7954C36.2462 68.245 36.0421 67.7634 35.702 67.4194C36.0421 67.0754 36.2462 66.5938 36.2462 66.0433C36.3142 65.0801 35.702 64.3233 34.8857 64.0481ZM22.7768 59.8511H28.151C30.668 59.8511 32.8449 61.5712 33.4571 63.9793H33.185L33.0489 63.8417C32.7088 63.4977 32.2326 63.2912 31.7564 63.2912H31.3483C30.8721 63.2912 30.3959 63.4977 30.0557 63.8417C29.9877 63.9105 29.8517 63.9793 29.7156 63.9793H29.3074C29.1714 63.9793 29.0353 63.9105 28.9673 63.8417C28.6272 63.4977 28.151 63.2912 27.6748 63.2912H27.2666C26.7904 63.2912 26.3142 63.4977 25.9741 63.8417C25.9061 63.9105 25.77 63.9793 25.634 63.9793H25.2258C25.0897 63.9793 24.9537 63.9105 24.8857 63.8417C24.5455 63.4977 24.0693 63.2912 23.5932 63.2912H23.185C22.7088 63.2912 22.2326 63.4977 21.8925 63.8417C21.8244 63.9105 21.6884 63.9793 21.5523 63.9793H21.1442C21.0081 63.9793 20.8721 63.9105 20.804 63.8417C20.4639 63.4977 19.9877 63.2912 19.5115 63.2912H19.1034C18.6272 63.2912 18.151 63.4977 17.8108 63.8417L17.6748 63.9793H17.4027C18.0829 61.5712 20.2598 59.8511 22.7768 59.8511ZM16.5863 65.3553H18.219L18.7632 64.8049C18.8312 64.7361 18.9673 64.6673 19.1034 64.6673H19.5115C19.6476 64.6673 19.7836 64.7361 19.8517 64.8049C20.1918 65.1489 20.668 65.3553 21.1442 65.3553H21.5523C22.0285 65.3553 22.5047 65.1489 22.8449 64.8049C22.9129 64.7361 23.0489 64.6673 23.185 64.6673H23.5932C23.7292 64.6673 23.8653 64.7361 23.9333 64.8049C24.2734 65.1489 24.7496 65.3553 25.2258 65.3553H25.634C26.1102 65.3553 26.5863 65.1489 26.9265 64.8049C26.9945 64.7361 27.1306 64.6673 27.2666 64.6673H27.6748C27.8108 64.6673 27.9469 64.7361 28.0149 64.8049C28.3551 65.1489 28.8312 65.3553 29.3074 65.3553H29.7156C30.1918 65.3553 30.668 65.1489 31.0081 64.8049C31.0761 64.7361 31.2122 64.6673 31.3483 64.6673H31.7564C31.8925 64.6673 32.0285 64.7361 32.0965 64.8049L32.6408 65.3553H34.2734C34.6816 65.3553 34.9537 65.6305 34.9537 66.0433C34.9537 66.4561 34.6816 66.7314 34.2734 66.7314H16.5863C16.1782 66.7314 15.9061 66.4561 15.9061 66.0433C15.9061 65.6305 16.1782 65.3553 16.5863 65.3553ZM28.0829 74.9876H22.7088C20.1918 74.9876 18.0149 73.2676 17.4027 70.8595H33.4571C32.7768 73.2676 30.6 74.9876 28.0829 74.9876ZM34.2734 69.4834H16.5863C16.1782 69.4834 15.9061 69.2082 15.9061 68.7954C15.9061 68.3826 16.1782 68.1074 16.5863 68.1074H34.2734C34.6816 68.1074 34.9537 68.3826 34.9537 68.7954C34.9537 69.1394 34.6816 69.4834 34.2734 69.4834Z" fill="#E67285"/>
<path d="M58.9671 64.0481C58.3548 60.8144 55.4977 58.4751 52.2324 58.4751H46.8582C43.5929 58.4751 40.7358 60.8832 40.1235 64.0481C39.3072 64.3233 38.6949 65.0801 38.6949 66.0433C38.6949 66.5938 38.899 67.0754 39.2392 67.4194C38.899 67.7634 38.6949 68.245 38.6949 68.7954C38.6949 69.7586 39.3072 70.5155 40.1235 70.7907C40.7358 74.0244 43.5929 76.3637 46.8582 76.3637H52.2324C55.4977 76.3637 58.3548 73.9556 58.9671 70.7907C59.7834 70.5155 60.3956 69.7586 60.3956 68.7954C60.3956 68.245 60.1915 67.7634 59.8514 67.4194C60.1915 67.0754 60.3956 66.5938 60.3956 66.0433C60.3956 65.0801 59.7834 64.3233 58.9671 64.0481ZM46.8582 59.8511H52.2324C54.7494 59.8511 56.9262 61.5712 57.5385 63.9793H57.2664L57.1303 63.8417C56.7902 63.4977 56.314 63.2912 55.8378 63.2912H55.4296C54.9534 63.2912 54.4773 63.4977 54.1371 63.8417C54.0691 63.9105 53.933 63.9793 53.797 63.9793H53.3888C53.2528 63.9793 53.1167 63.9105 53.0487 63.8417C52.7085 63.4977 52.2324 63.2912 51.7562 63.2912H51.348C50.8718 63.2912 50.3956 63.4977 50.0555 63.8417C49.9875 63.9105 49.8514 63.9793 49.7154 63.9793H49.3072C49.1711 63.9793 49.0351 63.9105 48.9671 63.8417C48.6269 63.4977 48.1507 63.2912 47.6745 63.2912H47.2664C46.7902 63.2912 46.314 63.4977 45.9739 63.8417C45.9058 63.9105 45.7698 63.9793 45.6337 63.9793H45.2256C45.0895 63.9793 44.9534 63.9105 44.8854 63.8417C44.5453 63.4977 44.0691 63.2912 43.5929 63.2912H43.1847C42.7085 63.2912 42.2324 63.4977 41.8922 63.8417L41.7562 63.9793H41.4841C42.1643 61.5712 44.3412 59.8511 46.8582 59.8511ZM40.6677 65.3553H42.3004L42.8446 64.8049C42.9126 64.7361 43.0487 64.6673 43.1847 64.6673H43.5929C43.729 64.6673 43.865 64.7361 43.933 64.8049C44.2732 65.1489 44.7494 65.3553 45.2256 65.3553H45.6337C46.1099 65.3553 46.5861 65.1489 46.9262 64.8049C46.9943 64.7361 47.1303 64.6673 47.2664 64.6673H47.6745C47.8106 64.6673 47.9466 64.7361 48.0147 64.8049C48.3548 65.1489 48.831 65.3553 49.3072 65.3553H49.7154C50.1915 65.3553 50.6677 65.1489 51.0079 64.8049C51.0759 64.7361 51.2119 64.6673 51.348 64.6673H51.7562C51.8922 64.6673 52.0283 64.7361 52.0963 64.8049C52.4364 65.1489 52.9126 65.3553 53.3888 65.3553H53.797C54.2732 65.3553 54.7494 65.1489 55.0895 64.8049C55.1575 64.7361 55.2936 64.6673 55.4296 64.6673H55.8378C55.9739 64.6673 56.1099 64.7361 56.1779 64.8049L56.7222 65.3553H58.3548C58.763 65.3553 59.0351 65.6305 59.0351 66.0433C59.0351 66.4561 58.763 66.7314 58.3548 66.7314H40.6677C40.2596 66.7314 39.9875 66.4561 39.9875 66.0433C39.9875 65.6305 40.3276 65.3553 40.6677 65.3553ZM52.2324 74.9876H46.8582C44.3412 74.9876 42.1643 73.2676 41.5521 70.8595H57.6065C56.9262 73.2676 54.7494 74.9876 52.2324 74.9876ZM58.3548 69.4834H40.6677C40.2596 69.4834 39.9875 69.2082 39.9875 68.7954C39.9875 68.3826 40.2596 68.1074 40.6677 68.1074H58.3548C58.763 68.1074 59.0351 68.3826 59.0351 68.7954C59.0351 69.1394 58.763 69.4834 58.3548 69.4834Z" fill="#E67285"/>
<path d="M83.049 64.0481C82.4367 60.8144 79.5796 58.4751 76.3143 58.4751H70.9401C67.6748 58.4751 64.8177 60.8832 64.2054 64.0481C63.3891 64.3233 62.7769 65.0801 62.7769 66.0433C62.7769 66.5938 62.9809 67.0754 63.3211 67.4194C62.9809 67.7634 62.7769 68.245 62.7769 68.7954C62.7769 69.7586 63.3891 70.5155 64.2054 70.7907C64.8177 74.0244 67.6748 76.3637 70.9401 76.3637H76.3143C79.5796 76.3637 82.4367 73.9556 83.049 70.7907C83.8653 70.5155 84.4775 69.7586 84.4775 68.7954C84.4775 68.245 84.2734 67.7634 83.9333 67.4194C84.2734 67.0754 84.4775 66.5938 84.4775 66.0433C84.5456 65.0801 83.9333 64.3233 83.049 64.0481ZM70.9401 59.8511H76.3143C78.8313 59.8511 81.0081 61.5712 81.6204 63.9793H81.3483L81.2122 63.8417C80.8721 63.4977 80.3959 63.2912 79.9197 63.2912H79.5115C79.0354 63.2912 78.5592 63.4977 78.219 63.8417C78.151 63.9105 78.0149 63.9793 77.8789 63.9793H77.4707C77.3347 63.9793 77.1986 63.9105 77.1306 63.8417C76.7905 63.4977 76.3143 63.2912 75.8381 63.2912H75.4299C74.9537 63.2912 74.4775 63.4977 74.1374 63.8417C74.0694 63.9105 73.9333 63.9793 73.7973 63.9793H73.3891C73.253 63.9793 73.117 63.9105 73.049 63.8417C72.7088 63.4977 72.2326 63.2912 71.7564 63.2912H71.3483C70.8721 63.2912 70.3959 63.4977 70.0558 63.8417C69.9877 63.9105 69.8517 63.9793 69.7156 63.9793H69.3075C69.1714 63.9793 69.0354 63.9105 68.9673 63.8417C68.6272 63.4977 68.151 63.2912 67.6748 63.2912H67.2666C66.7905 63.2912 66.3143 63.4977 65.9741 63.8417L65.8381 63.9793H65.566C66.2462 61.5712 68.4231 59.8511 70.9401 59.8511ZM64.8177 65.3553H66.4503L66.9945 64.8049C67.0626 64.7361 67.1986 64.6673 67.3347 64.6673H67.7428C67.8789 64.6673 68.0149 64.7361 68.083 64.8049C68.4231 65.1489 68.8993 65.3553 69.3755 65.3553H69.7837C70.2598 65.3553 70.736 65.1489 71.0762 64.8049C71.1442 64.7361 71.2803 64.6673 71.4163 64.6673H71.8245C71.9605 64.6673 72.0966 64.7361 72.1646 64.8049C72.5047 65.1489 72.9809 65.3553 73.4571 65.3553H73.8653C74.3415 65.3553 74.8177 65.1489 75.1578 64.8049C75.2258 64.7361 75.3619 64.6673 75.4979 64.6673H75.9061C76.0422 64.6673 76.1782 64.7361 76.2462 64.8049C76.5864 65.1489 77.0626 65.3553 77.5388 65.3553H77.9469C78.4231 65.3553 78.8993 65.1489 79.2394 64.8049C79.3075 64.7361 79.4435 64.6673 79.5796 64.6673H79.9877C80.1238 64.6673 80.2598 64.7361 80.3279 64.8049L80.8721 65.3553H82.5047C82.9129 65.3553 83.185 65.6305 83.185 66.0433C83.185 66.4561 82.9129 66.7314 82.5047 66.7314H64.8177C64.4095 66.7314 64.1374 66.4561 64.1374 66.0433C64.1374 65.6305 64.4095 65.3553 64.8177 65.3553ZM76.3143 74.9876H70.9401C68.4231 74.9876 66.2462 73.2676 65.634 70.8595H81.6884C81.0081 73.2676 78.8313 74.9876 76.3143 74.9876ZM82.5047 69.4834H64.8177C64.4095 69.4834 64.1374 69.2082 64.1374 68.7954C64.1374 68.3826 64.4095 68.1074 64.8177 68.1074H82.5047C82.9129 68.1074 83.185 68.3826 83.185 68.7954C83.185 69.1394 82.8449 69.4834 82.5047 69.4834Z" fill="#E67285"/>
<path d="M46.9265 45.2654C46.3143 42.0317 43.4571 39.6924 40.1918 39.6924H34.8177C31.5524 39.6924 28.6952 42.1005 28.083 45.2654C27.2667 45.5406 26.6544 46.2974 26.6544 47.2606C26.6544 47.811 26.8585 48.2927 27.1986 48.6367C26.8585 48.9807 26.6544 49.4623 26.6544 50.0127C26.6544 50.9759 27.2667 51.7328 28.083 52.008C28.6952 55.2417 31.5524 57.5809 34.8177 57.5809H40.1918C43.4571 57.5809 46.3143 55.1729 46.9265 52.008C47.7428 51.7328 48.3551 50.9759 48.3551 50.0127C48.3551 49.4623 48.151 48.9807 47.8109 48.6367C48.151 48.2927 48.3551 47.811 48.3551 47.2606C48.3551 46.2974 47.7428 45.4718 46.9265 45.2654ZM34.8177 40.9996H40.1918C42.7088 40.9996 44.8857 42.7197 45.498 45.1278H45.2258L45.0898 44.9901C44.7497 44.6461 44.2735 44.4397 43.7973 44.4397H43.3891C42.9129 44.4397 42.4367 44.6461 42.0966 44.9901C42.0286 45.059 41.8925 45.1278 41.7565 45.1278H41.3483C41.2122 45.1278 41.0762 45.059 41.0082 44.9901C40.668 44.6461 40.1918 44.4397 39.7156 44.4397H39.3075C38.8313 44.4397 38.3551 44.6461 38.015 44.9901C37.9469 45.059 37.8109 45.1278 37.6748 45.1278H37.2667C37.1306 45.1278 36.9946 45.059 36.9265 44.9901C36.5864 44.6461 36.1102 44.4397 35.634 44.4397H35.2258C34.7497 44.4397 34.2735 44.6461 33.9333 44.9901C33.8653 45.059 33.7292 45.1278 33.5932 45.1278H33.185C33.049 45.1278 32.9129 45.059 32.8449 44.9901C32.5048 44.6461 32.0286 44.4397 31.5524 44.4397H31.1442C30.668 44.4397 30.1918 44.6461 29.8517 44.9901L29.7156 45.1278H29.4435C30.1238 42.7197 32.3007 40.9996 34.8177 40.9996ZM28.6272 46.5038H30.2599L30.8041 45.9534C30.8721 45.8846 31.0082 45.8158 31.1442 45.8158H31.5524C31.6884 45.8158 31.8245 45.8846 31.8925 45.9534C32.2326 46.2974 32.7088 46.5038 33.185 46.5038H33.5932C34.0694 46.5038 34.5456 46.2974 34.8857 45.9534C34.9537 45.8846 35.0898 45.8158 35.2258 45.8158H35.634C35.7701 45.8158 35.9061 45.8846 35.9741 45.9534C36.3143 46.2974 36.7905 46.5038 37.2667 46.5038H37.6748C38.151 46.5038 38.6272 46.2974 38.9673 45.9534C39.0354 45.8846 39.1714 45.8158 39.3075 45.8158H39.7156C39.8517 45.8158 39.9878 45.8846 40.0558 45.9534C40.3959 46.2974 40.8721 46.5038 41.3483 46.5038H41.7565C42.2326 46.5038 42.7088 46.2974 43.049 45.9534C43.117 45.8846 43.2531 45.8158 43.3891 45.8158H43.7973C43.9333 45.8158 44.0694 45.8846 44.1374 45.9534L44.6816 46.5038H46.3143C46.7224 46.5038 46.9946 46.779 46.9946 47.1918C46.9946 47.6046 46.7224 47.8798 46.3143 47.8798H28.6272C28.219 47.8798 27.9469 47.6046 27.9469 47.1918C27.9469 46.779 28.2871 46.5038 28.6272 46.5038ZM40.1918 56.1361H34.8177C32.3007 56.1361 30.1238 54.416 29.5116 52.008H45.566C44.8177 54.416 42.7088 56.1361 40.1918 56.1361ZM46.3143 50.6319H28.6272C28.219 50.6319 27.9469 50.3567 27.9469 49.9439C27.9469 49.5311 28.219 49.2559 28.6272 49.2559H46.3143C46.7224 49.2559 46.9946 49.5311 46.9946 49.9439C46.9946 50.3567 46.7224 50.6319 46.3143 50.6319Z" fill="#E67285"/>
<path d="M71.0081 45.2654C70.3958 42.0317 67.5387 39.6924 64.2734 39.6924H58.8992C55.6339 39.6924 52.7768 42.1005 52.1645 45.2654C51.3482 45.5406 50.736 46.2974 50.736 47.2606C50.736 47.811 50.94 48.2927 51.2802 48.6367C50.94 48.9807 50.736 49.4623 50.736 50.0127C50.736 50.9759 51.3482 51.7328 52.1645 52.008C52.7768 55.2417 55.6339 57.5809 58.8992 57.5809H64.2734C67.5387 57.5809 70.3958 55.1729 71.0081 52.008C71.8244 51.7328 72.4366 50.9759 72.4366 50.0127C72.4366 49.4623 72.2326 48.9807 71.8924 48.6367C72.2326 48.2927 72.4366 47.811 72.4366 47.2606C72.4366 46.2974 71.8244 45.4718 71.0081 45.2654ZM58.8992 40.9996H64.2734C66.7904 40.9996 68.9673 42.7197 69.5795 45.1278H69.3074L69.1713 44.9901C68.8312 44.6461 68.355 44.4397 67.8788 44.4397H67.4707C66.9945 44.4397 66.5183 44.6461 66.1781 44.9901C66.1101 45.059 65.9741 45.1278 65.838 45.1278H65.4298C65.2938 45.1278 65.1577 45.059 65.0897 44.9901C64.7496 44.6461 64.2734 44.4397 63.7972 44.4397H63.389C62.9128 44.4397 62.4366 44.6461 62.0965 44.9901C62.0285 45.059 61.8924 45.1278 61.7564 45.1278H61.3482C61.2122 45.1278 61.0761 45.059 61.0081 44.9901C60.6679 44.6461 60.1917 44.4397 59.7156 44.4397H59.3074C58.8312 44.4397 58.355 44.6461 58.0149 44.9901C57.9468 45.059 57.8108 45.1278 57.6747 45.1278H57.2666C57.1305 45.1278 56.9945 45.059 56.9264 44.9901C56.5863 44.6461 56.1101 44.4397 55.6339 44.4397H55.2258C54.7496 44.4397 54.2734 44.6461 53.9332 44.9901L53.7972 45.1278H53.5251C54.2053 42.7197 56.3822 40.9996 58.8992 40.9996ZM52.7087 46.5038H54.3414L54.8856 45.9534C54.9536 45.8846 55.0897 45.8158 55.2258 45.8158H55.6339C55.77 45.8158 55.906 45.8846 55.9741 45.9534C56.3142 46.2974 56.7904 46.5038 57.2666 46.5038H57.6747C58.1509 46.5038 58.6271 46.2974 58.9673 45.9534C59.0353 45.8846 59.1713 45.8158 59.3074 45.8158H59.7156C59.8516 45.8158 59.9877 45.8846 60.0557 45.9534C60.3958 46.2974 60.872 46.5038 61.3482 46.5038H61.7564C62.2326 46.5038 62.7088 46.2974 63.0489 45.9534C63.1169 45.8846 63.253 45.8158 63.389 45.8158H63.7972C63.9332 45.8158 64.0693 45.8846 64.1373 45.9534C64.4775 46.2974 64.9536 46.5038 65.4298 46.5038H65.838C66.3142 46.5038 66.7904 46.2974 67.1305 45.9534C67.1985 45.8846 67.3346 45.8158 67.4707 45.8158H67.8788C68.0149 45.8158 68.1509 45.8846 68.219 45.9534L68.7632 46.5038H70.3958C70.804 46.5038 71.0761 46.779 71.0761 47.1918C71.0761 47.6046 70.804 47.8798 70.3958 47.8798H52.7087C52.3006 47.8798 52.0285 47.6046 52.0285 47.1918C52.0285 46.779 52.3686 46.5038 52.7087 46.5038ZM64.2734 56.1361H58.8992C56.3822 56.1361 54.2053 54.416 53.5931 52.008H69.6475C68.9673 54.416 66.7904 56.1361 64.2734 56.1361ZM70.3958 50.6319H52.7087C52.3006 50.6319 52.0285 50.3567 52.0285 49.9439C52.0285 49.5311 52.3006 49.2559 52.7087 49.2559H70.3958C70.804 49.2559 71.0761 49.5311 71.0761 49.9439C71.0761 50.3567 70.804 50.6319 70.3958 50.6319Z" fill="#E67285"/>
</svg>
