<svg width="55" height="51" viewBox="0 0 55 51" fill="none" xmlns="http://www.w3.org/2000/svg">
<path d="M22.944 46.1577V50.5697L26.8758 48.3099L22.944 46.1577Z" fill="black"/>
<path d="M30.6485 46.1577V50.5697L26.7167 48.3099L30.6485 46.1577Z" fill="black"/>
<path d="M38.345 18.0195L37.9868 34.4773C37.9868 34.4773 35.957 37 27.9571 37C20.0766 37 18.8229 34.1169 18.8229 34.1169L18.5244 18.9805C18.1662 19.0406 18.9423 18.9805 18.5244 18.9805C14.2856 19.0406 10.1066 15.6169 10.1066 11.3523C10.1066 7.08766 13.5692 3.6039 17.808 3.6039C18.8826 3.6039 19.9572 3.84416 20.9124 4.26461C22.1661 1.74188 24.8526 0 27.8377 0C30.7033 0 33.0316 1.62175 34.4048 3.96429C35.6585 3.00325 37.2107 2.52273 38.942 2.52273C43.1808 2.52273 46.6434 5.94643 46.6434 10.2711C46.7031 14.5357 42.6435 18.0195 38.345 18.0195C38.7032 18.0195 38.1062 18.0195 38.345 18.0195Z" fill="white"/>
<path d="M10.0153 21.6009C10.0153 21.0431 9.9652 20.5866 9.91512 20.333C9.81496 19.7244 9.51446 19.1665 9.01363 18.7101C8.51281 18.2536 7.9619 18.0508 7.26074 18.0508C6.55959 18.0508 5.90851 18.3044 5.40769 18.8115C4.85678 18.3044 4.25578 18.0508 3.55463 18.0508C2.90355 18.0508 2.25248 18.3044 1.80174 18.7101C1.35099 19.1158 1.00041 19.623 0.850165 20.333C0.800083 20.6373 0.75 21.0431 0.75 21.6009V25.9626C0.75 26.2162 0.95033 26.3176 1.10058 26.3176C1.35099 26.3176 1.45116 26.1147 1.45116 25.9626V21.4488C1.45116 20.6373 1.60141 19.978 1.95198 19.4708C2.30256 18.913 2.85347 18.6594 3.60471 18.6594C4.15562 18.6594 4.60636 18.8622 5.00702 19.268C4.65645 19.8766 4.5062 20.5359 4.5062 21.4488V25.9119C4.5062 26.1147 4.65645 26.2669 4.85678 26.2669C5.10719 26.2669 5.20736 26.064 5.20736 25.9119V21.3981C5.20736 20.7388 5.30752 20.2316 5.45777 19.8766C5.60802 20.2823 5.70818 20.8909 5.70818 21.6009V25.9626C5.70818 26.1654 5.85843 26.3176 6.05876 26.3176C6.30917 26.3176 6.40934 26.1147 6.40934 25.9626V21.2966C6.40934 20.3837 6.25909 19.7244 5.90851 19.2173C6.25909 18.8622 6.70983 18.6594 7.26074 18.6594C7.76157 18.6594 8.21231 18.8115 8.56289 19.1158C8.91347 19.3694 9.16388 19.7751 9.31413 20.2823C9.4143 20.5866 9.4143 20.9416 9.4143 21.4488V25.9626C9.4143 26.1654 9.56454 26.3176 9.76487 26.3176C10.0153 26.3176 10.1155 26.1147 10.1155 25.9626L10.0654 25.709V21.6009H10.0153Z" fill="black"/>
<path d="M18.1287 19.3188C17.3274 18.5073 16.3257 18.1016 15.1738 18.1016C14.0219 18.1016 13.0203 18.5073 12.2189 19.3188C11.4176 20.1302 11.017 21.1446 11.017 22.311C11.017 23.4775 11.4176 24.4919 12.269 25.3033C13.1204 26.1148 14.1221 26.5205 15.274 26.5205C16.1254 26.5205 16.9267 26.2669 17.5778 25.8105V25.9119C17.5778 26.2669 17.7781 26.3684 17.9284 26.3684C18.0786 26.3684 18.2789 26.2162 18.2789 25.9119V25.2526C19.0803 24.3904 19.4809 23.4268 19.4809 22.311C19.3808 21.0938 18.93 20.0795 18.1287 19.3188ZM17.4776 22.3618V24.999C16.7765 25.6076 16.0252 25.9119 15.1738 25.9119C14.2223 25.9119 13.3709 25.5569 12.7198 24.8469C12.0186 24.1876 11.7181 23.3761 11.7181 22.3618C11.7181 21.3474 12.0687 20.536 12.7699 19.8259C13.471 19.1159 14.2723 18.7609 15.274 18.7609C16.2256 18.7609 17.077 19.1159 17.728 19.8259C18.3791 20.536 18.7798 21.3474 18.7798 22.311C18.7798 23.0211 18.5794 23.6297 18.2289 24.1876V22.3618C18.1287 21.8546 17.4776 21.8546 17.4776 22.3618Z" fill="black"/>
<path d="M23.8882 26.5206C24.8398 26.5206 25.7412 26.2163 26.5426 25.557C26.7429 25.4048 26.8931 25.3034 26.9933 25.1512H27.0434V25.1005C27.0935 25.0498 27.0935 24.9991 27.0935 24.8977C27.0935 24.7455 26.9933 24.5933 26.793 24.5933H26.5926L26.5426 24.6948V24.7962C26.192 25.1005 25.7913 25.4048 25.3907 25.6077C24.9399 25.8105 24.4391 25.9627 23.9883 25.9627C22.9867 25.9627 22.1854 25.6077 21.5343 24.8977C20.8331 24.1876 20.4826 23.3762 20.4826 22.3618C20.4826 21.3982 20.8331 20.536 21.5343 19.8767C22.1854 19.1667 22.9867 18.8624 23.9883 18.8624C24.9399 18.8624 25.7913 19.2174 26.4925 19.9274L26.6427 20.0289H26.8431L26.8931 19.9781C26.9933 19.9274 27.0434 19.826 27.0434 19.7246V19.6231L26.9933 19.5724C26.9933 19.5724 26.9933 19.5217 26.9432 19.5217C26.8931 19.471 26.8931 19.4203 26.8431 19.4203C26.0918 18.6088 25.0902 18.1523 23.8882 18.1523C22.7363 18.1523 21.7346 18.5581 20.9333 19.3695C20.132 20.181 19.7313 21.1953 19.7313 22.3618C19.7313 23.4776 20.132 24.4919 20.9333 25.3541C21.7847 26.1148 22.7864 26.5206 23.8882 26.5206Z" fill="black"/>
<path d="M34.2052 19.3188C33.4039 18.5073 32.4023 18.1016 31.2504 18.1016C30.0985 18.1016 29.0968 18.5073 28.2955 19.3188C27.4942 20.1302 27.0935 21.1446 27.0935 22.311C27.0935 23.4775 27.4942 24.4919 28.2955 25.3033C29.1469 26.1148 30.1485 26.5205 31.3004 26.5205C32.1519 26.5205 32.9532 26.2669 33.6043 25.8105V25.9119C33.6043 26.2669 33.8046 26.3684 33.9548 26.3684C34.1051 26.3684 34.3054 26.2162 34.3054 25.9119V25.2526C35.1067 24.3904 35.5074 23.4268 35.5074 22.311C35.4573 21.0431 35.0566 20.0795 34.2052 19.3188ZM33.5542 22.3618V24.999C32.853 25.6076 32.1018 25.9119 31.2504 25.9119C30.2988 25.9119 29.4474 25.5569 28.7462 24.8469C28.0451 24.1876 27.7446 23.3761 27.7446 22.3618C27.7446 21.3474 28.0952 20.536 28.7963 19.8259C29.4975 19.1159 30.2988 18.7609 31.3004 18.7609C32.252 18.7609 33.1034 19.1159 33.7545 19.8259C34.4557 20.536 34.8062 21.3474 34.8062 22.311C34.8062 23.0211 34.6059 23.6804 34.2553 24.2383V22.4125C34.2052 21.8546 33.5542 21.8546 33.5542 22.3618Z" fill="black"/>
<path d="M36.5091 26.368C36.7596 26.368 36.8597 26.1651 36.8597 26.013V22.7164C36.8597 21.8542 36.9098 21.3471 37.01 20.992C37.1602 20.4342 37.4607 19.9777 37.8614 19.6227C38.262 19.2677 38.7128 19.0648 39.2136 18.9127C39.464 18.9127 39.5642 18.7098 39.5642 18.5577C39.5642 18.3041 39.4139 18.2534 39.3138 18.2026H39.2637H39.2136C38.9632 18.2026 38.6627 18.3041 38.3121 18.5069C37.7111 18.8112 37.2103 19.217 36.8597 19.7749C36.8597 19.4706 36.8597 19.0648 36.8597 18.6084C36.8597 18.1012 36.1586 18.1012 36.1586 18.6084V26.013C36.1586 26.2159 36.3088 26.368 36.5091 26.368Z" fill="black"/>
<path d="M46.826 19.3188C46.0246 18.5073 45.023 18.1016 43.8711 18.1016C42.7192 18.1016 41.7175 18.5073 40.9162 19.3188C40.1149 20.1302 39.7142 21.1446 39.7142 22.311C39.7142 23.4775 40.1149 24.4919 40.9162 25.3033C41.7676 26.1148 42.7693 26.5205 43.9212 26.5205C45.0731 26.5205 46.0747 26.1148 46.8761 25.2526C47.6774 24.3904 48.078 23.3761 48.078 22.2096C48.078 21.0938 47.6774 20.0795 46.826 19.3188ZM43.8711 18.7609C44.8227 18.7609 45.6741 19.1159 46.3251 19.8259C47.0263 20.536 47.3769 21.3474 47.3769 22.311C47.3769 23.3254 47.0263 24.1876 46.2751 24.8469C45.624 25.5569 44.8227 25.8612 43.821 25.8612C42.8694 25.8612 42.018 25.5062 41.367 24.7962C40.6658 24.0861 40.3152 23.2747 40.3152 22.311C40.3152 21.2967 40.6658 20.4852 41.367 19.7752C42.018 19.0652 42.8694 18.7609 43.8711 18.7609Z" fill="black"/>
<path d="M54.5888 20.2315C54.4887 19.6229 54.1882 19.1158 53.6373 18.6593C53.1364 18.2536 52.5354 18 51.8844 18C51.3835 18 50.9328 18.1014 50.5321 18.355C50.2316 18.5579 49.9312 18.7607 49.7308 19.065V18.5579C49.7308 18.0507 49.0297 18.0507 49.0297 18.5579V25.9625C49.0297 26.2161 49.23 26.3175 49.3802 26.3175C49.6307 26.3175 49.7308 26.1147 49.7308 25.9625V21.753C49.7308 21.2966 49.7308 20.8908 49.7809 20.688C49.8811 20.0794 50.0814 19.6229 50.432 19.2679C50.8326 18.9129 51.3335 18.71 51.8343 18.71C52.235 18.71 52.6356 18.8115 52.9361 19.0143C53.3869 19.2679 53.6873 19.6736 53.7875 20.1808C53.8877 20.4851 53.8877 21.043 53.8877 21.753V25.9625C53.8877 26.1654 54.0379 26.3175 54.2383 26.3175C54.3384 26.3175 54.4386 26.2668 54.4887 26.2161H54.6389V21.398C54.689 20.9416 54.6389 20.5358 54.5888 20.2315Z" fill="black"/>
<path d="M16.4258 36.106C16.0752 36.106 16.0251 36.3088 16.0251 36.461C16.0251 36.7146 16.2255 36.816 16.3757 36.816C16.7764 36.816 17.0769 36.9174 17.4275 37.1203C18.0785 37.4753 18.4291 38.0839 18.4291 38.8447C18.4291 39.4025 18.2288 39.859 17.8281 40.2647C17.4275 40.6704 16.9767 40.8733 16.4258 40.8733C15.6245 40.8733 15.0736 40.5183 14.6228 39.8083C14.4726 39.6054 14.3724 39.3011 14.3724 38.9461C14.3724 38.6925 14.2222 38.5404 14.0218 38.5404C13.7714 38.5404 13.6713 38.7432 13.6713 38.8954C13.6713 39.6054 13.9718 40.2647 14.5227 40.7212C15.0235 41.2283 15.6746 41.4819 16.3757 41.4819C17.127 41.4819 17.778 41.2283 18.2789 40.6705C18.7797 40.1633 19.0802 39.504 19.0802 38.7432C19.0802 37.9825 18.8298 37.3739 18.3289 36.8667C17.8281 36.4103 17.177 36.106 16.4258 36.106Z" fill="black"/>
<path d="M16.2756 33.9757C16.9267 33.9757 17.3774 34.2293 17.6779 34.7872C17.728 34.8886 17.8282 35.0915 17.8782 35.2944C17.8782 35.5479 18.0285 35.7001 18.2288 35.7001C18.4292 35.7001 18.5794 35.5479 18.5794 35.3451C18.5794 34.7365 18.2789 34.2293 17.7781 33.925C17.3273 33.5193 16.8265 33.3164 16.2255 33.3164C15.6245 33.3164 15.0736 33.5193 14.6229 33.9757C14.2222 34.4829 13.9718 34.9901 13.9718 35.5987C13.9718 36.2073 14.1721 36.7651 14.6229 37.2216C15.0235 37.678 15.5744 37.9316 16.1754 37.9316C16.4259 37.9316 16.5761 37.7795 16.5761 37.5766C16.5761 37.3737 16.4259 37.2216 16.2255 37.2216C15.7748 37.2216 15.4242 37.0694 15.1237 36.7651C14.8232 36.4608 14.673 36.0551 14.673 35.5987C14.673 35.1422 14.8232 34.7365 15.1237 34.4322C15.5244 34.1279 15.8749 33.9757 16.2756 33.9757Z" fill="black"/>
<path d="M25.1402 36.7143C25.1402 36.1564 25.0901 35.7507 25.04 35.4971C24.8897 34.8378 24.5893 34.3306 24.1385 33.9756C23.6377 33.5191 23.1369 33.3163 22.4858 33.3163C22.035 33.3163 21.5843 33.4177 21.1836 33.6713C20.8331 33.8234 20.5826 34.077 20.3823 34.3306V31.2876C20.3823 30.7804 19.6812 30.7804 19.6812 31.2876V40.9745C19.6812 41.2281 19.8815 41.3295 20.0317 41.3295C20.2821 41.3295 20.3823 41.1266 20.3823 40.9745V36.9171C20.3823 36.6128 20.3823 36.3593 20.4324 36.1564C20.4324 36.0042 20.4324 35.9028 20.4324 35.8521C20.5326 35.2942 20.7329 34.8378 21.0835 34.4827C21.4841 34.1277 21.8848 33.9756 22.4858 33.9756C22.8864 33.9756 23.2871 34.077 23.5876 34.2799C24.0383 34.5842 24.2888 34.9392 24.3889 35.3956C24.4891 35.6999 24.4891 36.2071 24.4891 36.9171V40.9745C24.4891 41.1773 24.6393 41.3295 24.8397 41.3295C25.0901 41.3295 25.1902 41.1266 25.1902 40.9745L25.1402 40.7209V36.7143Z" fill="black"/>
<path d="M32.8528 34.4828C32.0515 33.6714 31.0999 33.2656 29.9981 33.2656C28.8963 33.2656 27.8946 33.6714 27.1434 34.4828C26.3421 35.2943 25.9414 36.2579 25.9414 37.3737C25.9414 38.4894 26.3421 39.5038 27.1434 40.2645C27.9447 41.076 28.8963 41.4817 30.0482 41.4817C31.2001 41.4817 32.1517 41.076 32.9029 40.2645C33.7042 39.4531 34.1049 38.4894 34.1049 37.323C34.1049 36.1565 33.7042 35.2436 32.8528 34.4828ZM27.5941 39.8081C26.9431 39.1488 26.5925 38.3373 26.5925 37.3737C26.5925 36.4101 26.9431 35.5986 27.5941 34.8886C28.2452 34.2292 29.0465 33.8742 30.0482 33.8742C30.9497 33.8742 31.8011 34.2292 32.4521 34.8886C33.1032 35.5479 33.4538 36.3593 33.4538 37.323C33.4538 38.2866 33.1032 39.1488 32.4021 39.8081C31.751 40.4674 30.9497 40.8224 29.9981 40.8224C29.0966 40.8224 28.2452 40.4674 27.5941 39.8081Z" fill="black"/>
<path d="M38.8128 33.2656C37.6609 33.2656 36.7093 33.6714 35.9581 34.4828C35.2068 35.2943 34.7561 36.2579 34.7561 37.3737C34.7561 38.4894 35.1568 39.4531 35.908 40.2645V43.5611C35.908 43.764 36.0583 43.9161 36.2586 43.9161C36.509 43.9161 36.6092 43.7132 36.6092 43.5611V40.8731C37.2602 41.3296 38.0115 41.5324 38.8128 41.5324C39.9647 41.5324 40.9664 41.1267 41.7176 40.3659C42.5189 39.5545 42.9697 38.6416 42.9697 37.4751C42.9697 36.3086 42.5189 35.345 41.7176 34.5335C40.9163 33.6714 39.9647 33.2656 38.8128 33.2656ZM36.2586 37.0187C36.1083 37.0187 35.908 37.1708 35.908 37.4244V39.1488C35.6075 38.6416 35.4573 38.033 35.4573 37.3737C35.4573 36.4608 35.8078 35.5986 36.4589 34.9393C37.1601 34.2292 37.9614 33.9249 38.913 33.9249C39.8645 33.9249 40.6659 34.28 41.367 34.9393C42.0181 35.5986 42.3687 36.4101 42.3687 37.4244C42.3687 38.388 42.0181 39.1995 41.3169 39.8588C40.6659 40.5181 39.8645 40.8731 38.913 40.8731C38.0616 40.8731 37.3103 40.5688 36.6592 39.9602V37.4244C36.6092 37.0694 36.4088 37.0187 36.2586 37.0187Z" fill="black"/>
</svg>
