<svg width="50" height="35" viewBox="0 0 50 35" fill="none" xmlns="http://www.w3.org/2000/svg">
<path d="M49.6656 17.7129L43.044 9.84964C42.8784 9.6841 42.6301 9.51855 42.3818 9.51855H33.277V22.7619H0.168701V28.5558C0.168701 29.0525 0.499784 29.3835 0.996409 29.3835H5.79712C5.71435 29.6319 5.71435 29.9629 5.71435 30.2113C5.71435 32.5288 7.5353 34.3498 9.85289 34.3498C12.1705 34.3498 13.9914 32.5288 13.9914 30.2113C13.9914 29.9629 13.9914 29.6319 13.9087 29.3835H36.6706C36.5879 29.6319 36.5879 29.9629 36.5879 30.2113C36.5879 32.5288 38.4088 34.3498 40.7264 34.3498C43.044 34.3498 44.8649 32.5288 44.8649 30.2113C44.8649 29.9629 44.8649 29.6319 44.7822 29.3835H49.0035C49.5001 29.3835 49.8312 29.0525 49.8312 28.5558V18.2923V18.2095C49.8312 18.0439 49.7484 17.8784 49.6656 17.7129ZM47.2653 17.3818H41.5541V14.4848H44.7822L47.2653 17.3818ZM9.85289 32.6944C8.44578 32.6944 7.36976 31.6184 7.36976 30.2113C7.36976 29.7974 7.45253 29.3835 7.70085 28.9697C8.1147 28.2248 8.94241 27.7281 9.85289 27.7281C10.1012 27.7281 10.2667 27.7281 10.5151 27.8109C10.9289 27.8937 11.3428 28.142 11.5911 28.4731C11.7566 28.6386 11.8394 28.8042 12.0049 28.9697C12.2532 29.3835 12.336 29.7974 12.336 30.2113C12.336 31.6184 11.1772 32.6944 9.85289 32.6944ZM40.7264 32.6944C39.3193 32.6944 38.2433 31.6184 38.2433 30.2113C38.2433 29.7974 38.326 29.3835 38.5744 28.9697C38.9882 28.2248 39.8159 27.7281 40.7264 27.7281C40.9747 27.7281 41.1403 27.7281 41.3886 27.8109C41.8024 27.8937 42.2163 28.142 42.4646 28.4731C42.6301 28.6386 42.7129 28.8042 42.8784 28.9697C43.1268 29.3835 43.2095 29.7974 43.2095 30.2113C43.2095 31.6184 42.1335 32.6944 40.7264 32.6944ZM48.1758 27.7281H44.0372C44.0372 27.6454 43.9545 27.6454 43.9545 27.5626C43.8717 27.4798 43.7889 27.3971 43.7061 27.3143C43.6234 27.2315 43.6234 27.2315 43.5406 27.1487C43.4578 27.066 43.3751 26.9832 43.2923 26.9832C43.2095 26.9004 43.2095 26.9004 43.1268 26.9004C43.044 26.8177 42.9612 26.8177 42.8784 26.7349C42.7957 26.7349 42.7957 26.6521 42.7129 26.6521C42.6301 26.5693 42.5474 26.5693 42.4646 26.4866C42.3818 26.4866 42.299 26.4038 42.299 26.4038C42.2163 26.4038 42.1335 26.321 41.968 26.321C41.8852 26.321 41.8024 26.321 41.8024 26.2383C41.7197 26.2383 41.5541 26.1555 41.4713 26.1555C41.3886 26.1555 41.3886 26.1555 41.3058 26.1555C41.1403 26.1555 40.9747 26.1555 40.8092 26.1555C40.6436 26.1555 40.4781 26.1555 40.3125 26.1555C40.2298 26.1555 40.2298 26.1555 40.147 26.1555C40.0642 26.1555 39.8987 26.1555 39.8159 26.2383C39.7332 26.2383 39.6504 26.2383 39.6504 26.321C39.5676 26.321 39.4848 26.4038 39.3193 26.4038C39.2365 26.4038 39.1538 26.4866 39.1538 26.4866C39.071 26.5693 38.9882 26.5693 38.9054 26.6521C38.8227 26.6521 38.8227 26.7349 38.7399 26.7349C38.6571 26.8177 38.5744 26.8177 38.4916 26.9004C38.4088 26.9004 38.4088 26.9832 38.326 26.9832C38.2433 27.066 38.1605 27.1487 38.0777 27.1487C37.995 27.2315 37.995 27.2315 37.9122 27.3143C37.8294 27.3971 37.7467 27.4798 37.6639 27.5626C37.6639 27.6454 37.5811 27.6454 37.5811 27.7281H13.1637C13.1637 27.6454 13.0809 27.6454 13.0809 27.5626C12.9982 27.4798 12.9154 27.3971 12.8326 27.3143C12.7499 27.2315 12.7499 27.2315 12.6671 27.1487C12.5843 27.066 12.5016 26.9832 12.4188 26.9832C12.336 26.9004 12.336 26.9004 12.2532 26.9004C12.1705 26.8177 12.0877 26.8177 12.0049 26.7349C11.9222 26.7349 11.9222 26.6521 11.8394 26.6521C11.7566 26.5693 11.6738 26.5693 11.5911 26.4866C11.5083 26.4866 11.4255 26.4038 11.4255 26.4038C11.3428 26.4038 11.26 26.321 11.0944 26.321C11.0117 26.321 10.9289 26.321 10.9289 26.2383C10.8461 26.2383 10.6806 26.1555 10.5978 26.1555C10.5151 26.1555 10.5151 26.1555 10.4323 26.1555C10.2667 26.1555 10.1012 26.1555 9.93566 26.1555C9.77012 26.1555 9.60457 26.1555 9.43903 26.1555C9.35626 26.1555 9.35626 26.1555 9.27349 26.1555C9.19072 26.1555 9.02518 26.1555 8.94241 26.2383C8.85964 26.2383 8.77687 26.2383 8.77687 26.321C8.69409 26.321 8.61132 26.4038 8.52855 26.4038C8.44578 26.4038 8.36301 26.4866 8.28024 26.4866C8.19747 26.4866 8.1147 26.5693 8.03193 26.5693C7.94916 26.5693 7.86639 26.6521 7.78362 26.6521C7.70084 26.7349 7.61807 26.7349 7.5353 26.8177C7.45253 26.9004 7.36976 26.9004 7.36976 26.9832C7.28699 27.066 7.28699 27.066 7.20422 27.1487C7.12145 27.2315 7.03868 27.2315 7.03868 27.3143C6.79037 27.3971 6.79037 27.4798 6.7076 27.5626C6.62482 27.6454 6.62482 27.7281 6.54205 27.7281H1.82412V24.4173H34.1047C34.6014 24.4173 34.9324 24.0862 34.9324 23.5896V11.174H41.968L43.3751 12.8294H40.7264C40.2298 12.8294 39.8987 13.1605 39.8987 13.6571V18.2095C39.8987 18.7061 40.2298 19.0372 40.7264 19.0372H48.1758V27.7281Z" fill="#4E9DD3"/>
<path d="M28.4765 6.70444C27.7315 2.81421 24.3379 0 20.2822 0H13.8261C9.85305 0 6.45945 2.81421 5.63174 6.70444C4.63849 7.03552 3.89355 7.946 3.89355 9.02202C3.89355 9.68418 4.14187 10.2636 4.55572 10.6774C4.14187 11.0913 3.89355 11.6707 3.89355 12.3328C3.89355 13.4089 4.63849 14.4021 5.63174 14.6504C6.37668 18.5407 9.77028 21.3549 13.8261 21.3549H20.2822C24.2552 21.3549 27.6488 18.5407 28.4765 14.6504C29.4697 14.3194 30.2147 13.4089 30.2147 12.3328C30.2147 11.6707 29.9664 11.0913 29.5525 10.6774C29.9664 10.2636 30.2147 9.68418 30.2147 9.02202C30.2974 7.946 29.5525 7.03552 28.4765 6.70444ZM13.8261 1.65542H20.2822C23.3447 1.65542 25.9106 3.72469 26.7383 6.62166H26.4072L26.2417 6.45612C25.9106 5.9595 25.3312 5.79396 24.7518 5.79396H24.2552C23.6758 5.79396 23.0964 6.04227 22.6825 6.45612C22.5998 6.53889 22.4342 6.62166 22.2687 6.62166H21.772C21.6065 6.62166 21.441 6.53889 21.3582 6.45612C20.9443 5.9595 20.3649 5.79396 19.7856 5.79396H19.2889C18.7095 5.79396 18.1301 6.04227 17.7163 6.45612C17.6335 6.53889 17.468 6.62166 17.3024 6.62166H16.8058C16.6403 6.62166 16.4747 6.53889 16.3919 6.45612C16.0609 5.9595 15.4815 5.79396 14.9021 5.79396H14.4054C13.8261 5.79396 13.2467 6.04227 12.8328 6.45612C12.75 6.53889 12.5845 6.62166 12.4189 6.62166H11.9223C11.7568 6.62166 11.5912 6.53889 11.5085 6.45612C11.0946 5.9595 10.5152 5.79396 9.93582 5.79396H9.4392C8.8598 5.79396 8.28041 6.04227 7.86655 6.45612L7.70101 6.53889H7.4527C8.19764 3.72469 10.8463 1.65542 13.8261 1.65542ZM6.37668 8.19431H8.36318L9.02534 7.53214C9.19089 7.44937 9.27366 7.3666 9.4392 7.3666H9.93582C10.1014 7.3666 10.2669 7.44937 10.3497 7.53214C10.7635 7.946 11.3429 8.19431 11.9223 8.19431H12.4189C12.9983 8.19431 13.5777 7.946 13.9916 7.53214C14.0744 7.44937 14.2399 7.3666 14.4054 7.3666H14.9021C15.0676 7.3666 15.2332 7.44937 15.3159 7.53214C15.7298 7.946 16.3092 8.19431 16.8886 8.19431H17.3852C17.9646 8.19431 18.544 7.946 18.9578 7.53214C19.0406 7.44937 19.2062 7.3666 19.2889 7.3666H19.7856C19.9511 7.3666 20.1166 7.44937 20.1994 7.53214C20.6133 7.946 21.1927 8.19431 21.772 8.19431H22.2687C22.8481 8.19431 23.4275 7.946 23.8413 7.53214C23.9241 7.44937 24.0896 7.3666 24.2552 7.3666H24.7518C24.9173 7.3666 25.0829 7.44937 25.1657 7.53214L25.8278 8.19431H27.8143C28.2282 8.19431 28.642 8.52539 28.642 9.02202C28.642 9.51864 28.3109 9.84973 27.8143 9.84973H6.37668C5.96282 9.84973 5.54897 9.51864 5.54897 9.02202C5.54897 8.52539 5.96282 8.19431 6.37668 8.19431ZM20.3649 19.6995H13.9088C10.8463 19.6995 8.28041 17.6302 7.4527 14.7332H26.8211C25.9934 17.713 23.4275 19.6995 20.3649 19.6995ZM27.8143 13.1606H6.37668C5.96282 13.1606 5.54897 12.8295 5.54897 12.3328C5.54897 11.8362 5.88005 11.5051 6.37668 11.5051H27.7315C28.1454 11.5051 28.5593 11.8362 28.5593 12.3328C28.5593 12.8295 28.2282 13.1606 27.8143 13.1606Z" fill="#4E9DD3"/>
</svg>
