<svg width="125" height="125" viewBox="0 0 125 125" fill="none" xmlns="http://www.w3.org/2000/svg">
<path d="M106.425 106.648C82.225 130.848 43.025 130.848 18.725 106.648C-5.575 82.3477 -5.575 43.1477 18.725 18.9477C42.925 -5.35234 82.125 -5.35234 106.425 18.9477C130.525 43.1477 130.525 82.3477 106.425 106.648Z" fill="#B3D9F3"/>
<path d="M79.8254 40.7476L79.2254 68.1476C79.2254 68.1476 75.8254 72.3476 62.4254 72.3476C49.2254 72.3476 47.1254 67.5476 47.1254 67.5476L46.6254 42.3476C46.0254 42.4476 47.3254 42.3476 46.6254 42.3476C39.5254 42.4476 32.5254 36.7476 32.5254 29.6476C32.5254 22.5476 38.3254 16.7476 45.4254 16.7476C47.2254 16.7476 49.0254 17.1476 50.6254 17.8476C52.7254 13.6476 57.2254 10.7476 62.2254 10.7476C67.0254 10.7476 70.9254 13.4476 73.2254 17.3476C75.3254 15.7476 77.9254 14.9476 80.8254 14.9476C87.9254 14.9476 93.7254 20.6476 93.7254 27.8476C93.8254 34.9476 87.0254 40.7476 79.8254 40.7476C80.4254 40.7476 79.4254 40.7476 79.8254 40.7476Z" fill="white"/>
<path d="M28.2256 57.4478C28.2256 56.3478 28.1256 55.4478 28.0256 54.9478C27.8256 53.7478 27.2256 52.6478 26.2256 51.7478C25.2256 50.8478 24.1256 50.4478 22.7256 50.4478C21.3256 50.4478 20.0256 50.9478 19.0256 51.9478C17.9256 50.9478 16.7256 50.4478 15.3256 50.4478C14.0256 50.4478 12.7256 50.9478 11.8256 51.7478C10.9256 52.5478 10.2256 53.5478 9.92559 54.9478C9.82559 55.5478 9.72559 56.3478 9.72559 57.4478V66.0478C9.72559 66.5478 10.1256 66.7478 10.4256 66.7478C10.9256 66.7478 11.1256 66.3478 11.1256 66.0478V57.1478C11.1256 55.5478 11.4256 54.2478 12.1256 53.2478C12.8256 52.1478 13.9256 51.6478 15.4256 51.6478C16.5256 51.6478 17.4256 52.0478 18.2256 52.8478C17.5256 54.0478 17.2256 55.3478 17.2256 57.1478V65.9478C17.2256 66.3477 17.5256 66.6478 17.9256 66.6478C18.4256 66.6478 18.6256 66.2478 18.6256 65.9478V57.0478C18.6256 55.7478 18.8256 54.7478 19.1256 54.0478C19.4256 54.8478 19.6256 56.0478 19.6256 57.4478V66.0478C19.6256 66.4478 19.9256 66.7478 20.3256 66.7478C20.8256 66.7478 21.0256 66.3478 21.0256 66.0478V56.8478C21.0256 55.0478 20.7256 53.7478 20.0256 52.7478C20.7256 52.0478 21.6256 51.6478 22.7256 51.6478C23.7256 51.6478 24.6256 51.9478 25.3256 52.5478C26.0256 53.0478 26.5256 53.8478 26.8256 54.8478C27.0256 55.4478 27.0256 56.1478 27.0256 57.1478V66.0478C27.0256 66.4478 27.3256 66.7478 27.7256 66.7478C28.2256 66.7478 28.4256 66.3478 28.4256 66.0478L28.3256 65.5478V57.4478H28.2256Z" fill="black"/>
<path d="M44.4256 52.9479C42.8256 51.3479 40.8256 50.5479 38.5256 50.5479C36.2256 50.5479 34.2256 51.3479 32.6256 52.9479C31.0256 54.5479 30.2256 56.5479 30.2256 58.8479C30.2256 61.1479 31.0256 63.1479 32.7256 64.7479C34.4256 66.3479 36.4256 67.1479 38.7256 67.1479C40.4256 67.1479 42.0256 66.6479 43.3256 65.7479V65.9478C43.3256 66.6479 43.7256 66.8479 44.0256 66.8479C44.3256 66.8479 44.7256 66.5478 44.7256 65.9478V64.6479C46.3256 62.9479 47.1256 61.0479 47.1256 58.8479C46.9256 56.4479 46.0256 54.4479 44.4256 52.9479ZM43.1256 58.9479V64.1479C41.7256 65.3479 40.2256 65.9478 38.5256 65.9478C36.6256 65.9478 34.9256 65.2479 33.6256 63.8479C32.2256 62.5479 31.6256 60.9479 31.6256 58.9479C31.6256 56.9479 32.3256 55.3479 33.7256 53.9479C35.1256 52.5479 36.7256 51.8479 38.7256 51.8479C40.6256 51.8479 42.3256 52.5479 43.6256 53.9479C44.9256 55.3479 45.7256 56.9479 45.7256 58.8479C45.7256 60.2479 45.3256 61.4479 44.6256 62.5479V58.9479C44.4256 57.9479 43.1256 57.9479 43.1256 58.9479Z" fill="black"/>
<path d="M55.9256 67.1475C57.8256 67.1475 59.6256 66.5475 61.2256 65.2475C61.6256 64.9475 61.9256 64.7475 62.1256 64.4475H62.2256V64.3475C62.3256 64.2475 62.3256 64.1475 62.3256 63.9475C62.3256 63.6475 62.1256 63.3475 61.7256 63.3475H61.3256L61.2256 63.5475V63.7475C60.5256 64.3475 59.7256 64.9475 58.9256 65.3475C58.0256 65.7475 57.0256 66.0475 56.1256 66.0475C54.1256 66.0475 52.5256 65.3475 51.2256 63.9475C49.8256 62.5475 49.1256 60.9475 49.1256 58.9475C49.1256 57.0475 49.8256 55.3475 51.2256 54.0475C52.5256 52.6475 54.1256 52.0475 56.1256 52.0475C58.0256 52.0475 59.7256 52.7475 61.1256 54.1475L61.4256 54.3475H61.8256L61.9256 54.2475C62.1256 54.1475 62.2256 53.9475 62.2256 53.7475V53.5475L62.1256 53.4475C62.1256 53.4475 62.1256 53.3475 62.0256 53.3475C61.9256 53.2475 61.9256 53.1475 61.8256 53.1475C60.3256 51.5475 58.3256 50.6475 55.9256 50.6475C53.6256 50.6475 51.6256 51.4475 50.0256 53.0475C48.4256 54.6475 47.6256 56.6475 47.6256 58.9475C47.6256 61.1475 48.4256 63.1475 50.0256 64.8475C51.7256 66.3475 53.7256 67.1475 55.9256 67.1475Z" fill="black"/>
<path d="M76.5256 52.9479C74.9256 51.3479 72.9256 50.5479 70.6256 50.5479C68.3256 50.5479 66.3256 51.3479 64.7256 52.9479C63.1256 54.5479 62.3256 56.5479 62.3256 58.8479C62.3256 61.1479 63.1256 63.1479 64.7256 64.7479C66.4256 66.3479 68.4256 67.1479 70.7256 67.1479C72.4256 67.1479 74.0256 66.6479 75.3256 65.7479V65.9478C75.3256 66.6479 75.7256 66.8479 76.0256 66.8479C76.3256 66.8479 76.7256 66.5478 76.7256 65.9478V64.6479C78.3256 62.9479 79.1256 61.0479 79.1256 58.8479C79.0256 56.3479 78.2256 54.4479 76.5256 52.9479ZM75.2256 58.9479V64.1479C73.8256 65.3479 72.3256 65.9478 70.6256 65.9478C68.7256 65.9478 67.0256 65.2479 65.6256 63.8479C64.2256 62.5479 63.6256 60.9479 63.6256 58.9479C63.6256 56.9479 64.3256 55.3479 65.7256 53.9479C67.1256 52.5479 68.7256 51.8479 70.7256 51.8479C72.6256 51.8479 74.3256 52.5479 75.6256 53.9479C77.0256 55.3479 77.7256 56.9479 77.7256 58.8479C77.7256 60.2479 77.3256 61.5479 76.6256 62.6479V59.0479C76.5256 57.9479 75.2256 57.9479 75.2256 58.9479Z" fill="black"/>
<path d="M81.1255 66.8476C81.6255 66.8476 81.8255 66.4476 81.8255 66.1476V59.6476C81.8255 57.9476 81.9255 56.9476 82.1255 56.2476C82.4255 55.1476 83.0255 54.2476 83.8255 53.5476C84.6255 52.8476 85.5255 52.4476 86.5255 52.1476C87.0255 52.1476 87.2255 51.7476 87.2255 51.4476C87.2255 50.9476 86.9255 50.8476 86.7255 50.7476H86.6255H86.5255C86.0255 50.7476 85.4255 50.9476 84.7255 51.3476C83.5255 51.9476 82.5255 52.7476 81.8255 53.8476C81.8255 53.2476 81.8255 52.4476 81.8255 51.5476C81.8255 50.5476 80.4255 50.5476 80.4255 51.5476V66.1476C80.4255 66.5476 80.7255 66.8476 81.1255 66.8476Z" fill="black"/>
<path d="M101.726 52.9479C100.126 51.3479 98.1256 50.5479 95.8256 50.5479C93.5256 50.5479 91.5256 51.3479 89.9256 52.9479C88.3256 54.5479 87.5256 56.5479 87.5256 58.8479C87.5256 61.1479 88.3256 63.1479 89.9256 64.7479C91.6256 66.3479 93.6256 67.1479 95.9256 67.1479C98.2256 67.1479 100.226 66.3479 101.826 64.6479C103.426 62.9479 104.226 60.9479 104.226 58.6479C104.226 56.4479 103.426 54.4479 101.726 52.9479ZM95.8256 51.8479C97.7256 51.8479 99.4256 52.5479 100.726 53.9479C102.126 55.3479 102.826 56.9479 102.826 58.8479C102.826 60.8479 102.126 62.5479 100.626 63.8479C99.3256 65.2479 97.7256 65.8479 95.7256 65.8479C93.8256 65.8479 92.1256 65.1479 90.8256 63.7479C89.4256 62.3479 88.7256 60.7479 88.7256 58.8479C88.7256 56.8479 89.4256 55.2479 90.8256 53.8479C92.1256 52.4479 93.8256 51.8479 95.8256 51.8479Z" fill="black"/>
<path d="M117.226 54.7477C117.026 53.5477 116.426 52.5477 115.326 51.6477C114.326 50.8477 113.126 50.3477 111.826 50.3477C110.826 50.3477 109.926 50.5477 109.126 51.0477C108.526 51.4477 107.926 51.8477 107.526 52.4477V51.4477C107.526 50.4477 106.126 50.4477 106.126 51.4477V66.0477C106.126 66.5477 106.526 66.7477 106.826 66.7477C107.326 66.7477 107.526 66.3477 107.526 66.0477V57.7477C107.526 56.8477 107.526 56.0477 107.626 55.6477C107.826 54.4477 108.226 53.5477 108.926 52.8477C109.726 52.1477 110.726 51.7477 111.726 51.7477C112.526 51.7477 113.326 51.9477 113.926 52.3477C114.826 52.8477 115.426 53.6477 115.626 54.6477C115.826 55.2477 115.826 56.3477 115.826 57.7477V66.0477C115.826 66.4477 116.126 66.7477 116.526 66.7477C116.726 66.7477 116.926 66.6477 117.026 66.5477H117.326V57.0477C117.426 56.1477 117.326 55.3477 117.226 54.7477Z" fill="black"/>
<path d="M41.0256 86.0479C40.3256 86.0479 40.2256 86.4478 40.2256 86.7478C40.2256 87.2478 40.6256 87.4478 40.9256 87.4478C41.7256 87.4478 42.3256 87.6479 43.0256 88.0479C44.3256 88.7479 45.0256 89.9478 45.0256 91.4478C45.0256 92.5478 44.6256 93.4478 43.8256 94.2478C43.0256 95.0478 42.1256 95.4478 41.0256 95.4478C39.4256 95.4478 38.3256 94.7478 37.4256 93.3478C37.1256 92.9478 36.9256 92.3478 36.9256 91.6479C36.9256 91.1479 36.6256 90.8478 36.2256 90.8478C35.7256 90.8478 35.5256 91.2479 35.5256 91.5479C35.5256 92.9479 36.1256 94.2479 37.2256 95.1479C38.2256 96.1479 39.5256 96.6479 40.9256 96.6479C42.4256 96.6479 43.7256 96.1479 44.7256 95.0479C45.7256 94.0479 46.3256 92.7478 46.3256 91.2478C46.3256 89.7478 45.8256 88.5479 44.8256 87.5479C43.8256 86.6479 42.5256 86.0479 41.0256 86.0479Z" fill="black"/>
<path d="M40.7256 81.8478C42.0256 81.8478 42.9256 82.3478 43.5256 83.4478C43.6256 83.6478 43.8256 84.0478 43.9256 84.4478C43.9256 84.9478 44.2256 85.2478 44.6256 85.2478C45.0256 85.2478 45.3256 84.9479 45.3256 84.5479C45.3256 83.3479 44.7256 82.3478 43.7256 81.7478C42.8256 80.9478 41.8256 80.5479 40.6256 80.5479C39.4256 80.5479 38.3256 80.9478 37.4256 81.8478C36.6256 82.8478 36.1256 83.8479 36.1256 85.0479C36.1256 86.2479 36.5256 87.3478 37.4256 88.2478C38.2256 89.1478 39.3256 89.6479 40.5256 89.6479C41.0256 89.6479 41.3256 89.3478 41.3256 88.9478C41.3256 88.5478 41.0256 88.2478 40.6256 88.2478C39.7256 88.2478 39.0256 87.9478 38.4256 87.3478C37.8256 86.7478 37.5256 85.9479 37.5256 85.0479C37.5256 84.1479 37.8256 83.3478 38.4256 82.7478C39.2256 82.1478 39.9256 81.8478 40.7256 81.8478Z" fill="black"/>
<path d="M58.4256 87.2478C58.4256 86.1478 58.3256 85.3478 58.2256 84.8478C57.9256 83.5478 57.3256 82.5478 56.4256 81.8478C55.4256 80.9478 54.4256 80.5479 53.1256 80.5479C52.2256 80.5479 51.3256 80.7478 50.5256 81.2478C49.8256 81.5478 49.3256 82.0479 48.9256 82.5479V76.5479C48.9256 75.5479 47.5256 75.5479 47.5256 76.5479V95.6479C47.5256 96.1479 47.9256 96.3478 48.2256 96.3478C48.7256 96.3478 48.9256 95.9478 48.9256 95.6479V87.6479C48.9256 87.0478 48.9256 86.5478 49.0256 86.1479C49.0256 85.8478 49.0256 85.6479 49.0256 85.5479C49.2256 84.4479 49.6256 83.5478 50.3256 82.8478C51.1256 82.1478 51.9256 81.8478 53.1256 81.8478C53.9256 81.8478 54.7256 82.0478 55.3256 82.4478C56.2256 83.0478 56.7256 83.7478 56.9256 84.6479C57.1256 85.2479 57.1256 86.2479 57.1256 87.6479V95.6479C57.1256 96.0478 57.4256 96.3478 57.8256 96.3478C58.3256 96.3478 58.5256 95.9478 58.5256 95.6479L58.4256 95.1479V87.2478Z" fill="black"/>
<path d="M73.8256 82.8478C72.2256 81.2478 70.3256 80.4478 68.1256 80.4478C65.9256 80.4478 63.9256 81.2478 62.4256 82.8478C60.8256 84.4478 60.0256 86.3478 60.0256 88.5478C60.0256 90.7478 60.8256 92.7478 62.4256 94.2478C64.0256 95.8478 65.9256 96.6478 68.2256 96.6478C70.5256 96.6478 72.4256 95.8478 73.9256 94.2478C75.5256 92.6478 76.3256 90.7478 76.3256 88.4478C76.3256 86.1478 75.5256 84.3478 73.8256 82.8478ZM63.3256 93.3478C62.0256 92.0478 61.3256 90.4478 61.3256 88.5478C61.3256 86.6478 62.0256 85.0478 63.3256 83.6478C64.6256 82.3478 66.2256 81.6478 68.2256 81.6478C70.0256 81.6478 71.7256 82.3478 73.0256 83.6478C74.3256 84.9478 75.0256 86.5478 75.0256 88.4478C75.0256 90.3478 74.3256 92.0478 72.9256 93.3478C71.6256 94.6478 70.0256 95.3478 68.1256 95.3478C66.3256 95.3478 64.6256 94.6478 63.3256 93.3478Z" fill="black"/>
<path d="M85.7256 80.4478C83.4256 80.4478 81.5256 81.2478 80.0256 82.8478C78.5256 84.4478 77.6256 86.3478 77.6256 88.5478C77.6256 90.7478 78.4256 92.6478 79.9256 94.2478V100.748C79.9256 101.148 80.2256 101.448 80.6256 101.448C81.1256 101.448 81.3256 101.048 81.3256 100.748V95.4478C82.6256 96.3478 84.1256 96.7478 85.7256 96.7478C88.0256 96.7478 90.0256 95.9478 91.5256 94.4478C93.1256 92.8478 94.0256 91.0478 94.0256 88.7478C94.0256 86.4478 93.1256 84.5478 91.5256 82.9478C89.9256 81.2478 88.0256 80.4478 85.7256 80.4478ZM80.6256 87.8478C80.3256 87.8478 79.9256 88.1478 79.9256 88.6478V92.0478C79.3256 91.0478 79.0256 89.8478 79.0256 88.5478C79.0256 86.7478 79.7256 85.0478 81.0256 83.7478C82.4256 82.3478 84.0256 81.7478 85.9256 81.7478C87.8256 81.7478 89.4256 82.4478 90.8256 83.7478C92.1256 85.0478 92.8256 86.6478 92.8256 88.6478C92.8256 90.5478 92.1256 92.1478 90.7256 93.4478C89.4256 94.7478 87.8256 95.4478 85.9256 95.4478C84.2256 95.4478 82.7256 94.8478 81.4256 93.6478V88.6478C81.3256 87.9478 80.9256 87.8478 80.6256 87.8478Z" fill="black"/>
<path d="M57.2256 103.047V110.247L63.7256 106.547L57.2256 103.047Z" fill="black"/>
<path d="M69.9258 103.047V110.247L63.4258 106.547L69.9258 103.047Z" fill="black"/>
</svg>
