<svg width="24" height="25" viewBox="0 0 24 25" fill="none" xmlns="http://www.w3.org/2000/svg">
<path d="M12.1177 13.2308C14.4535 13.2308 16.353 11.3313 16.353 8.99553C16.353 6.65978 14.4535 4.76025 12.1177 4.76025C9.78197 4.76025 7.88245 6.65978 7.88245 8.99553C7.88245 11.3313 9.78197 13.2308 12.1177 13.2308ZM12.1177 6.87789C13.2856 6.87789 14.2354 7.82765 14.2354 8.99553C14.2354 10.1634 13.2856 11.1132 12.1177 11.1132C10.9498 11.1132 10.0001 10.1634 10.0001 8.99553C10.0001 7.82765 10.9498 6.87789 12.1177 6.87789Z" fill="black"/>
<path d="M17.9156 12.5856C17.4882 12.1915 16.7973 12.1915 16.3699 12.5856C14.0262 14.7464 10.2111 14.7464 7.86629 12.5856C7.43886 12.1915 6.74799 12.1915 6.32057 12.5856C5.89314 12.9797 5.89314 13.6166 6.32057 14.0117C7.68045 15.2655 9.40435 15.9801 11.1818 16.1665L8.06524 19.0399C7.63782 19.434 7.63782 20.071 8.06524 20.465C8.49266 20.8591 9.18353 20.8591 9.61096 20.465L12.1176 18.154L14.6242 20.465C14.8373 20.6616 15.1172 20.7603 15.397 20.7603C15.6769 20.7603 15.9567 20.6616 16.1699 20.465C16.5973 20.071 16.5973 19.434 16.1699 19.0399L13.0533 16.1665C14.8308 15.9801 16.5547 15.2655 17.9145 14.0117C18.342 13.6176 18.342 12.9797 17.9156 12.5856Z" fill="black"/>
</svg>
