<svg width="24" height="25" viewBox="0 0 24 25" fill="none" xmlns="http://www.w3.org/2000/svg">
<path d="M16.1826 21.7429H8.81739C7.86087 21.7429 7 20.9776 7 19.9255V5.57765C7 4.62112 7.76522 3.76025 8.81739 3.76025H16.1826C17.1391 3.76025 18 4.52547 18 5.57765V19.9255C18 20.882 17.1391 21.7429 16.1826 21.7429Z" stroke="black" stroke-miterlimit="10" stroke-linecap="round" stroke-linejoin="round"/>
<path d="M8.72144 18.1079H16.278" stroke="black" stroke-miterlimit="10" stroke-linecap="round" stroke-linejoin="round"/>
<path d="M12.3566 20.595C12.7264 20.595 13.0261 20.2952 13.0261 19.9254C13.0261 19.5556 12.7264 19.2559 12.3566 19.2559C11.9868 19.2559 11.687 19.5556 11.687 19.9254C11.687 20.2952 11.9868 20.595 12.3566 20.595Z" fill="black"/>
</svg>
