<svg width="16" height="12" viewBox="0 0 16 12" fill="none" xmlns="http://www.w3.org/2000/svg">
<path d="M0.692634 5.29484H13.6354L10.5471 2.15082C10.2765 1.87556 10.2765 1.42904 10.5471 1.15383C10.8176 0.878411 11.2562 0.878411 11.5264 1.15383L15.7971 5.50132C16.0676 5.77658 16.0676 6.22314 15.7971 6.49831L11.5264 10.846C11.3912 10.9838 11.2139 11.0525 11.0367 11.0525C10.8595 11.0525 10.6823 10.9838 10.5471 10.846C10.2765 10.5708 10.2765 10.1242 10.5471 9.84906L13.6354 6.70487H0.692634C0.310157 6.70487 0 6.38919 0 5.99984C0 5.61049 0.310117 5.29484 0.692634 5.29484Z" fill="black"/>
</svg>
