<svg width="17" height="11" viewBox="0 0 17 11" fill="none" xmlns="http://www.w3.org/2000/svg">
<path fill-rule="evenodd" clip-rule="evenodd" d="M8.34297 10.2138H9.34977C9.34977 10.2138 9.65389 10.1804 9.80916 10.013C9.95207 9.85937 9.9475 9.5708 9.9475 9.5708C9.9475 9.5708 9.92783 8.21985 10.5548 8.02092C11.1729 7.82495 11.9666 9.32658 12.8078 9.90396C13.444 10.3409 13.9274 10.2451 13.9274 10.2451L16.1768 10.2138C16.1768 10.2138 17.3535 10.1413 16.7955 9.21614C16.7498 9.14045 16.4706 8.53175 15.1231 7.28096C13.7127 5.97186 13.9015 6.1836 15.6005 3.91915C16.6352 2.54008 17.0489 1.69814 16.9197 1.33754C16.7964 0.994086 16.0354 1.08487 16.0354 1.08487L13.5028 1.10064C13.5028 1.10064 13.315 1.07503 13.1758 1.15827C13.0397 1.2399 12.9521 1.43015 12.9521 1.43015C12.9521 1.43015 12.5513 2.49732 12.0167 3.40489C10.8889 5.31994 10.438 5.42101 10.2537 5.30211C9.82493 5.02497 9.93195 4.18874 9.93195 3.59468C9.93195 1.73884 10.2134 0.965046 9.38384 0.764737C9.10853 0.698196 8.90593 0.654292 8.20188 0.647204C7.2982 0.637828 6.53332 0.649947 6.10023 0.862147C5.81212 1.00323 5.58985 1.31764 5.72522 1.33571C5.89261 1.35812 6.27173 1.43792 6.47272 1.71163C6.73226 2.06469 6.72311 2.85769 6.72311 2.85769C6.72311 2.85769 6.8722 5.04235 6.37486 5.31377C6.03346 5.4999 5.56516 5.11986 4.55973 3.38248C4.04455 2.49252 3.65559 1.50881 3.65559 1.50881C3.65559 1.50881 3.58059 1.32496 3.44682 1.22664C3.28447 1.1075 3.05763 1.06955 3.05763 1.06955L0.65095 1.08532C0.65095 1.08532 0.289662 1.09538 0.157037 1.25248C0.0390466 1.39219 0.147662 1.68122 0.147662 1.68122C0.147662 1.68122 2.03185 6.08939 4.16528 8.31086C6.1215 10.3476 8.34297 10.2138 8.34297 10.2138Z" fill="black"/>
</svg>
