<svg width="30" height="37" viewBox="0 0 30 37" fill="none" xmlns="http://www.w3.org/2000/svg">
<path d="M22.3349 7.07103C22.2565 6.94224 22.1454 6.83561 22.0125 6.76159C21.8795 6.68756 21.7293 6.64867 21.5765 6.6487C21.4236 6.64874 21.2734 6.6877 21.1405 6.76179C21.0076 6.83588 20.8965 6.94255 20.8182 7.07138C19.5017 9.29108 18.3072 11.5784 17.2399 13.9235C15.4893 9.2436 13.319 4.72548 10.7546 0.422302L10.7531 0.420414C10.7175 0.363924 10.6755 0.311639 10.6277 0.264589C10.6162 0.253027 10.6042 0.241464 10.5917 0.230711C10.5436 0.185694 10.4903 0.146287 10.433 0.113274L10.4307 0.112542C10.3726 0.0811955 10.3111 0.056446 10.2474 0.0387729C10.2313 0.0338781 10.2156 0.0297156 10.1991 0.025977C10.0662 -0.00865901 9.92637 -0.00865901 9.79346 0.025977C9.77697 0.0298312 9.76126 0.0336854 9.74513 0.0387729C9.68193 0.056267 9.62096 0.0807569 9.56339 0.111771L9.55946 0.113274C9.50212 0.146278 9.44885 0.185685 9.40073 0.230711C9.38809 0.241618 9.3762 0.252911 9.36469 0.264589C9.31696 0.311648 9.27488 0.363931 9.2393 0.420414L9.23776 0.422302C8.89227 0.989869 0.769287 14.4306 0.769287 23.2696C0.769287 33.3931 5.53578 37 9.99628 37C11.1721 37 12.333 36.7411 13.3934 36.2422C14.4538 35.7434 15.3867 35.0174 16.1234 34.1177C16.7179 35.004 17.5275 35.7315 18.4794 36.2346C19.4312 36.7377 20.4955 37.0007 21.5766 37C25.2768 37 29.2308 34.0303 29.2308 25.6949C29.2308 18.4768 22.6163 7.53322 22.3349 7.07103ZM9.99628 35.2641C9.57721 35.1331 8.06929 32.7608 8.06929 23.2695C8.06929 17.883 9.17616 10.4675 9.99628 5.71228C10.8168 10.4668 11.9236 17.8812 11.9236 23.2695C11.9236 32.7623 10.4157 35.1335 9.99628 35.2641ZM2.53601 23.2695C2.53601 18.0302 5.73051 10.7901 8.13678 6.07885C7.32127 10.8812 6.30258 17.944 6.30258 23.2695C6.30258 27.4424 6.58819 32.1469 7.68089 34.8243C4.45612 33.5113 2.53601 29.3323 2.53601 23.2695ZM12.3116 34.8243C13.4047 32.1471 13.6904 27.4426 13.6904 23.2697C13.6904 17.9442 12.6716 10.8817 11.8562 6.07943C13.6285 9.47518 15.1083 13.0105 16.2802 16.6485L16.2806 16.6504C16.6414 17.8189 16.9334 19.0069 17.1552 20.2083C17.1586 20.2279 17.1621 20.2482 17.1655 20.2678C17.2087 20.5121 17.2464 20.7511 17.2798 20.9863C17.2844 21.0195 17.2897 21.0526 17.2944 21.0857C17.3246 21.3054 17.3496 21.5204 17.371 21.7319C17.3752 21.7733 17.381 21.8151 17.3848 21.8562C17.404 22.0598 17.4178 22.2574 17.4293 22.4531C17.432 22.4968 17.4362 22.5412 17.4385 22.5841C17.45 22.8182 17.4565 23.0471 17.4565 23.2695C17.4565 23.4983 17.4539 23.7243 17.4487 23.9474C17.3662 27.2972 16.6713 30.0934 15.4254 32.0656C15.4154 32.0849 15.4063 32.1046 15.3982 32.1247C14.6842 33.3209 13.6041 34.2655 12.3116 34.8241V34.8243ZM21.5766 35.2656C19.7493 35.2656 18.2467 34.3356 17.2061 32.5711C18.2827 30.6858 19.0154 28.1245 19.1838 24.7656C19.1877 24.6892 19.1906 24.6128 19.1941 24.536C19.2114 24.1243 19.2232 23.705 19.2232 23.2695C19.2232 23.0139 19.2154 22.7512 19.2014 22.4825C19.1952 22.3612 19.1841 22.2378 19.1753 22.1151C19.165 21.9721 19.1554 21.8299 19.1416 21.683C19.1255 21.5144 19.1044 21.3435 19.0837 21.1726C19.0714 21.0729 19.0601 20.9739 19.0465 20.8723C19.0177 20.6615 18.9848 20.4492 18.9495 20.2358C18.9395 20.1749 18.9303 20.1146 18.9196 20.0533C18.8755 19.7973 18.8271 19.5396 18.7743 19.2802L18.7628 19.2237C18.5757 18.3099 18.3392 17.3795 18.0635 16.4434C19.0979 13.9912 20.2708 11.5976 21.5766 9.27362C23.3203 12.3848 27.4641 20.3428 27.4641 25.6949C27.4641 31.5985 25.2082 35.2656 21.5766 35.2656Z" fill="#4E9DD3"/>
</svg>
