<svg width="16" height="13" viewBox="0 0 16 13" fill="none" xmlns="http://www.w3.org/2000/svg">
<path d="M14.9732 0.807099L0.339879 5.88365C-0.134095 6.0481 -0.105381 6.6536 0.382518 6.78184L4.10099 7.75937L5.48873 11.6795C5.63369 12.089 6.21657 12.2131 6.55399 11.9064L8.47653 10.1588L12.2487 12.6238C12.7104 12.9255 13.3678 12.7014 13.485 12.2024L15.9834 1.56872C16.1057 1.04785 15.5301 0.613884 14.9732 0.807099ZM13.1385 3.16697L6.34146 8.51791C6.27371 8.57126 6.23059 8.64508 6.22051 8.72511L5.95882 10.7961C5.95027 10.8636 5.8441 10.8726 5.82144 10.8077L4.74476 7.71911C4.69544 7.5777 4.75974 7.4245 4.90105 7.34648L12.9277 2.91468C13.1123 2.81269 13.3013 3.0389 13.1385 3.16697Z" fill="black"/>
</svg>
